<!-- Generator: Adobe Illustrator 18.1.1, SVG Export Plug-In  -->
<svg version="1.1"
	 xmlns="http://www.w3.org/2000/svg" xmlns:xlink="http://www.w3.org/1999/xlink" xmlns:a="http://ns.adobe.com/AdobeSVGViewerExtensions/3.0/"
	 x="0px" y="0px" width="185.754px" height="242.129px" viewBox="0 0 185.754 242.129" enable-background="new 0 0 185.754 242.129"
	 xml:space="preserve">
<defs>
</defs>
<g>
	<g>
		<path fill="#F4F4F4" d="M176.68,0.71c4.578,0,8.296,3.722,8.296,8.295v223.794c0,4.579-3.718,8.299-8.296,8.299H9.075
			c-4.571,0-8.294-3.72-8.294-8.299V9.005c0-4.573,3.723-8.295,8.294-8.295H176.68 M176.68,0H9.075C4.1,0,0.068,4.028,0.068,9.005
			v223.794c0,4.977,4.031,9.01,9.007,9.01H176.68c4.977,0,9.009-4.032,9.009-9.01V9.005C185.689,4.028,181.656,0,176.68,0L176.68,0z
			"/>
		<path fill="#D1CFCF" d="M176.703,0.555H9.094c-4.65,0-8.433,3.784-8.433,8.435v223.794c0,4.652,3.783,8.434,8.433,8.434h167.609
			c4.647,0,8.427-3.781,8.427-8.434V8.989C185.13,4.339,181.351,0.555,176.703,0.555z M184.997,232.783
			c0,4.572-3.722,8.296-8.293,8.296H9.094c-4.574,0-8.294-3.724-8.294-8.296V8.989c0-4.576,3.72-8.296,8.294-8.296h167.609
			c4.571,0,8.293,3.72,8.293,8.296V232.783z"/>
		<linearGradient id="SVGID_1_" gradientUnits="userSpaceOnUse" x1="-0.3085" y1="120.9712" x2="185.8768" y2="120.9712">
			<stop  offset="0" style="stop-color:#605C5B"/>
			<stop  offset="1" style="stop-color:#BEBBBB"/>
		</linearGradient>
		<path fill="url(#SVGID_1_)" d="M176.68,0H9.075C4.069,0,0,4.068,0,9.072V232.87c0,5.005,4.069,9.072,9.075,9.072H176.68
			c5.008,0,9.075-4.067,9.075-9.072V9.072C185.754,4.068,181.688,0,176.68,0z M185.617,232.87c0,4.929-4.003,8.938-8.937,8.938
			H9.075c-4.93,0-8.939-4.01-8.939-8.938V9.072c0-4.928,4.009-8.935,8.939-8.935H176.68c4.934,0,8.937,4.008,8.937,8.935V232.87z"/>
		<linearGradient id="SVGID_2_" gradientUnits="userSpaceOnUse" x1="0.1363" y1="120.9893" x2="185.6143" y2="120.9893">
			<stop  offset="0" style="stop-color:#BEBBBB"/>
			<stop  offset="1" style="stop-color:#E0DFDF"/>
		</linearGradient>
		<path fill="url(#SVGID_2_)" d="M176.68,0.155H9.072c-4.927,0-8.936,4.007-8.936,8.936v223.795c0,4.929,4.009,8.938,8.936,8.938
			H176.68c4.923,0,8.935-4.009,8.935-8.938V9.091C185.614,4.162,181.603,0.155,176.68,0.155z M185.479,232.886
			c0,4.854-3.95,8.802-8.799,8.802H9.072c-4.853,0-8.8-3.948-8.8-8.802V9.091c0-4.853,3.947-8.798,8.8-8.798H176.68
			c4.849,0,8.799,3.944,8.799,8.798V232.886z"/>
		<linearGradient id="SVGID_3_" gradientUnits="userSpaceOnUse" x1="92.8784" y1="0.71" x2="92.8784" y2="229.0855">
			<stop  offset="0" style="stop-color:#13110C"/>
			<stop  offset="1" style="stop-color:#191713"/>
		</linearGradient>
		<path fill="url(#SVGID_3_)" d="M184.976,9.005c0-4.573-3.718-8.295-8.296-8.295H9.075c-4.571,0-8.294,3.722-8.294,8.295v223.794
			c0,4.579,3.723,8.299,8.294,8.299H176.68c4.578,0,8.296-3.72,8.296-8.299V9.005z"/>
		<defs>
			<filter id="Adobe_OpacityMaskFilter" filterUnits="userSpaceOnUse" x="0.941" y="0.87" width="183.917" height="240.11">
				<feFlood  style="flood-color:white;flood-opacity:1" result="back"/>
				<feBlend  in="SourceGraphic" in2="back" mode="normal"/>
			</filter>
		</defs>
		<mask maskUnits="userSpaceOnUse" x="0.941" y="0.87" width="183.917" height="240.11" id="SVGID_4_">
			<g filter="url(#Adobe_OpacityMaskFilter)">
				<defs>
					<filter id="Adobe_OpacityMaskFilter_1_" filterUnits="userSpaceOnUse" x="0.941" y="0.87" width="183.917" height="240.11">
						<feFlood  style="flood-color:white;flood-opacity:1" result="back"/>
						<feBlend  in="SourceGraphic" in2="back" mode="normal"/>
					</filter>
				</defs>
				<mask maskUnits="userSpaceOnUse" x="0.941" y="0.87" width="183.917" height="240.11" id="SVGID_4_">
					<g filter="url(#Adobe_OpacityMaskFilter_1_)">
					</g>
				</mask>
				<linearGradient id="SVGID_5_" gradientUnits="userSpaceOnUse" x1="92.8988" y1="0.8702" x2="92.8988" y2="240.9805">
					<stop  offset="0" style="stop-color:#FFFFFF"/>
					<stop  offset="0.0024" style="stop-color:#FAFAFA"/>
					<stop  offset="0.0253" style="stop-color:#CBCBCB"/>
					<stop  offset="0.0506" style="stop-color:#A0A0A0"/>
					<stop  offset="0.078" style="stop-color:#797979"/>
					<stop  offset="0.1077" style="stop-color:#585858"/>
					<stop  offset="0.1404" style="stop-color:#3D3D3D"/>
					<stop  offset="0.1771" style="stop-color:#262626"/>
					<stop  offset="0.2197" style="stop-color:#151515"/>
					<stop  offset="0.2718" style="stop-color:#090909"/>
					<stop  offset="0.3437" style="stop-color:#020202"/>
					<stop  offset="0.5301" style="stop-color:#000000"/>
					<stop  offset="0.5992" style="stop-color:#030303"/>
					<stop  offset="0.6596" style="stop-color:#0E0E0E"/>
					<stop  offset="0.7167" style="stop-color:#202020"/>
					<stop  offset="0.7718" style="stop-color:#393939"/>
					<stop  offset="0.8255" style="stop-color:#5A5A5A"/>
					<stop  offset="0.8782" style="stop-color:#828282"/>
					<stop  offset="0.9299" style="stop-color:#B1B1B1"/>
					<stop  offset="0.9798" style="stop-color:#E7E7E7"/>
					<stop  offset="1" style="stop-color:#FFFFFF"/>
				</linearGradient>
				<path mask="url(#SVGID_4_)" fill="url(#SVGID_5_)" d="M176.703,1.077c4.384,0,7.95,3.564,7.95,7.949v223.802
					c0,4.382-3.565,7.945-7.95,7.945H9.094c-4.382,0-7.95-3.563-7.95-7.945V9.026c0-4.385,3.568-7.949,7.95-7.949H176.703
					 M176.703,0.87H9.094c-4.498,0-8.154,3.662-8.154,8.156v223.802c0,4.495,3.656,8.152,8.154,8.152h167.609
					c4.495,0,8.154-3.657,8.154-8.152V9.026C184.857,4.532,181.198,0.87,176.703,0.87L176.703,0.87z"/>
			</g>
		</mask>
		<linearGradient id="SVGID_6_" gradientUnits="userSpaceOnUse" x1="92.8988" y1="0.8702" x2="92.8988" y2="240.9805">
			<stop  offset="0" style="stop-color:#494543"/>
			<stop  offset="0.0763" style="stop-color:#494543"/>
			<stop  offset="0.5301" style="stop-color:#494543"/>
			<stop  offset="0.9703" style="stop-color:#494543"/>
			<stop  offset="1" style="stop-color:#494543"/>
		</linearGradient>
		<path fill="url(#SVGID_6_)" d="M176.703,1.077c4.384,0,7.95,3.564,7.95,7.949v223.802c0,4.382-3.565,7.945-7.95,7.945H9.094
			c-4.382,0-7.95-3.563-7.95-7.945V9.026c0-4.385,3.568-7.949,7.95-7.949H176.703 M176.703,0.87H9.094
			c-4.498,0-8.154,3.662-8.154,8.156v223.802c0,4.495,3.656,8.152,8.154,8.152h167.609c4.495,0,8.154-3.657,8.154-8.152V9.026
			C184.857,4.532,181.198,0.87,176.703,0.87L176.703,0.87z"/>
		<defs>
			<filter id="Adobe_OpacityMaskFilter_2_" filterUnits="userSpaceOnUse" x="165.856" y="0" width="9.637" height="0.137">
				<feFlood  style="flood-color:white;flood-opacity:1" result="back"/>
				<feBlend  in="SourceGraphic" in2="back" mode="normal"/>
			</filter>
		</defs>
		<mask maskUnits="userSpaceOnUse" x="165.856" y="0" width="9.637" height="0.137" id="SVGID_7_">
			<g filter="url(#Adobe_OpacityMaskFilter_2_)">
				<defs>
					<filter id="Adobe_OpacityMaskFilter_3_" filterUnits="userSpaceOnUse" x="165.856" y="0" width="9.637" height="0.137">
						<feFlood  style="flood-color:white;flood-opacity:1" result="back"/>
						<feBlend  in="SourceGraphic" in2="back" mode="normal"/>
					</filter>
				</defs>
				<mask maskUnits="userSpaceOnUse" x="165.856" y="0" width="9.637" height="0.137" id="SVGID_7_">
					<g filter="url(#Adobe_OpacityMaskFilter_3_)">
					</g>
				</mask>
				<linearGradient id="SVGID_8_" gradientUnits="userSpaceOnUse" x1="165.856" y1="0.0684" x2="175.4932" y2="0.0684">
					<stop  offset="0.0604" style="stop-color:#000000"/>
					<stop  offset="0.0787" style="stop-color:#030303"/>
					<stop  offset="0.0943" style="stop-color:#0E0E0E"/>
					<stop  offset="0.1089" style="stop-color:#1F1F1F"/>
					<stop  offset="0.1228" style="stop-color:#383838"/>
					<stop  offset="0.1362" style="stop-color:#585858"/>
					<stop  offset="0.1492" style="stop-color:#7E7E7E"/>
					<stop  offset="0.1496" style="stop-color:#808080"/>
					<stop  offset="0.1554" style="stop-color:#898989"/>
					<stop  offset="0.1773" style="stop-color:#A8A8A8"/>
					<stop  offset="0.2021" style="stop-color:#C4C4C4"/>
					<stop  offset="0.2301" style="stop-color:#DADADA"/>
					<stop  offset="0.2629" style="stop-color:#EBEBEB"/>
					<stop  offset="0.3034" style="stop-color:#F6F6F6"/>
					<stop  offset="0.3603" style="stop-color:#FDFDFD"/>
					<stop  offset="0.5181" style="stop-color:#FFFFFF"/>
					<stop  offset="0.5947" style="stop-color:#FCFCFC"/>
					<stop  offset="0.6594" style="stop-color:#F1F1F1"/>
					<stop  offset="0.7197" style="stop-color:#E0E0E0"/>
					<stop  offset="0.7773" style="stop-color:#C7C7C7"/>
					<stop  offset="0.8326" style="stop-color:#A8A8A8"/>
					<stop  offset="0.8855" style="stop-color:#828282"/>
					<stop  offset="0.894" style="stop-color:#656565"/>
					<stop  offset="0.9054" style="stop-color:#464646"/>
					<stop  offset="0.9178" style="stop-color:#2D2D2D"/>
					<stop  offset="0.9316" style="stop-color:#191919"/>
					<stop  offset="0.9472" style="stop-color:#0B0B0B"/>
					<stop  offset="0.9665" style="stop-color:#020202"/>
					<stop  offset="1" style="stop-color:#000000"/>
				</linearGradient>
				<rect x="165.856" y="0" mask="url(#SVGID_7_)" fill="url(#SVGID_8_)" width="9.637" height="0.137"/>
			</g>
		</mask>
		<linearGradient id="SVGID_9_" gradientUnits="userSpaceOnUse" x1="165.856" y1="0.0684" x2="175.4932" y2="0.0684">
			<stop  offset="0.0604" style="stop-color:#E8E7E6"/>
			<stop  offset="0.0844" style="stop-color:#E5E4E3"/>
			<stop  offset="0.1048" style="stop-color:#DCDADA"/>
			<stop  offset="0.1238" style="stop-color:#CECBCA"/>
			<stop  offset="0.1419" style="stop-color:#B9B5B4"/>
			<stop  offset="0.1496" style="stop-color:#ADAAA9"/>
			<stop  offset="0.1554" style="stop-color:#B2AEAD"/>
			<stop  offset="0.1872" style="stop-color:#C4C1C0"/>
			<stop  offset="0.2248" style="stop-color:#D2D0CF"/>
			<stop  offset="0.2714" style="stop-color:#DCDADA"/>
			<stop  offset="0.3367" style="stop-color:#E2E0E0"/>
			<stop  offset="0.5181" style="stop-color:#E3E2E2"/>
			<stop  offset="0.6877" style="stop-color:#E1DFDF"/>
			<stop  offset="0.8307" style="stop-color:#D8D6D6"/>
			<stop  offset="0.8855" style="stop-color:#D3D1D1"/>
			<stop  offset="0.8915" style="stop-color:#DAD8D8"/>
			<stop  offset="0.9096" style="stop-color:#EAE9EA"/>
			<stop  offset="0.9303" style="stop-color:#F6F6F6"/>
			<stop  offset="0.9557" style="stop-color:#FDFDFD"/>
			<stop  offset="1" style="stop-color:#FFFFFF"/>
		</linearGradient>
		<rect x="165.856" y="0" fill="url(#SVGID_9_)" width="9.637" height="0.137"/>
		<g>
			<defs>
				<filter id="Adobe_OpacityMaskFilter_4_" filterUnits="userSpaceOnUse" x="87.343" y="226.511" width="10.852" height="10.852">
					<feFlood  style="flood-color:white;flood-opacity:1" result="back"/>
					<feBlend  in="SourceGraphic" in2="back" mode="normal"/>
				</filter>
			</defs>
			<mask maskUnits="userSpaceOnUse" x="87.343" y="226.511" width="10.852" height="10.852" id="SVGID_10_">
				<g filter="url(#Adobe_OpacityMaskFilter_4_)">
					<defs>
						
							<filter id="Adobe_OpacityMaskFilter_5_" filterUnits="userSpaceOnUse" x="87.343" y="226.511" width="10.852" height="10.852">
							<feFlood  style="flood-color:white;flood-opacity:1" result="back"/>
							<feBlend  in="SourceGraphic" in2="back" mode="normal"/>
						</filter>
					</defs>
					<mask maskUnits="userSpaceOnUse" x="87.343" y="226.511" width="10.852" height="10.852" id="SVGID_10_">
						<g filter="url(#Adobe_OpacityMaskFilter_5_)">
						</g>
					</mask>
					
						<linearGradient id="SVGID_11_" gradientUnits="userSpaceOnUse" x1="864.1364" y1="309.2159" x2="864.1364" y2="303.6657" gradientTransform="matrix(0 1 -1 0 396.5592 -632.1993)">
						<stop  offset="0" style="stop-color:#FFFFFF"/>
						<stop  offset="0.8916" style="stop-color:#FFFFFF"/>
						<stop  offset="1" style="stop-color:#000000"/>
					</linearGradient>
					<path mask="url(#SVGID_10_)" fill="url(#SVGID_11_)" d="M92.767,237.363c-2.996,0-5.424-2.429-5.424-5.427
						c0-2.993,2.427-5.426,5.424-5.426c2.997,0,5.428,2.433,5.428,5.426C98.195,234.935,95.764,237.363,92.767,237.363z"/>
				</g>
			</mask>
			
				<linearGradient id="SVGID_12_" gradientUnits="userSpaceOnUse" x1="864.1364" y1="309.2159" x2="864.1364" y2="303.6657" gradientTransform="matrix(0 1 -1 0 396.5592 -632.1993)">
				<stop  offset="0" style="stop-color:#64615F"/>
				<stop  offset="0.1332" style="stop-color:#625E5D"/>
				<stop  offset="0.2948" style="stop-color:#5A5755"/>
				<stop  offset="0.471" style="stop-color:#4F4B49"/>
				<stop  offset="0.6578" style="stop-color:#3E3B39"/>
				<stop  offset="0.851" style="stop-color:#292624"/>
				<stop  offset="0.8916" style="stop-color:#24211E"/>
				<stop  offset="1" style="stop-color:#24211E"/>
			</linearGradient>
			<path fill="url(#SVGID_12_)" d="M92.767,237.363c-2.996,0-5.424-2.429-5.424-5.427c0-2.993,2.427-5.426,5.424-5.426
				c2.997,0,5.428,2.433,5.428,5.426C98.195,234.935,95.764,237.363,92.767,237.363z"/>
			<defs>
				<filter id="Adobe_OpacityMaskFilter_6_" filterUnits="userSpaceOnUse" x="87.343" y="231.822" width="10.852" height="5.541">
					<feFlood  style="flood-color:white;flood-opacity:1" result="back"/>
					<feBlend  in="SourceGraphic" in2="back" mode="normal"/>
				</filter>
			</defs>
			<mask maskUnits="userSpaceOnUse" x="87.343" y="231.822" width="10.852" height="5.541" id="SVGID_13_">
				<g filter="url(#Adobe_OpacityMaskFilter_6_)">
					<defs>
						<filter id="Adobe_OpacityMaskFilter_7_" filterUnits="userSpaceOnUse" x="87.343" y="231.822" width="10.852" height="5.541">
							<feFlood  style="flood-color:white;flood-opacity:1" result="back"/>
							<feBlend  in="SourceGraphic" in2="back" mode="normal"/>
						</filter>
					</defs>
					<mask maskUnits="userSpaceOnUse" x="87.343" y="231.822" width="10.852" height="5.541" id="SVGID_13_">
						<g filter="url(#Adobe_OpacityMaskFilter_7_)">
						</g>
					</mask>
					<linearGradient id="SVGID_14_" gradientUnits="userSpaceOnUse" x1="92.7691" y1="237.1218" x2="92.7691" y2="231.7777">
						<stop  offset="0" style="stop-color:#FFFFFF"/>
						<stop  offset="1" style="stop-color:#000000"/>
					</linearGradient>
					<path mask="url(#SVGID_13_)" fill="url(#SVGID_14_)" d="M92.767,237.136c-2.957,0-5.361-2.37-5.421-5.314
						c-0.003,0.042-0.003,0.081-0.003,0.114c0,2.998,2.431,5.427,5.424,5.427c3.001,0,5.428-2.429,5.428-5.427
						c0-0.033-0.003-0.072-0.003-0.114C98.128,234.766,95.728,237.136,92.767,237.136z"/>
				</g>
			</mask>
			<linearGradient id="SVGID_15_" gradientUnits="userSpaceOnUse" x1="92.7691" y1="237.1218" x2="92.7691" y2="231.7777">
				<stop  offset="0" style="stop-color:#6E6A69"/>
				<stop  offset="1" style="stop-color:#6E6A69"/>
			</linearGradient>
			<path fill="url(#SVGID_15_)" d="M92.767,237.136c-2.957,0-5.361-2.37-5.421-5.314c-0.003,0.042-0.003,0.081-0.003,0.114
				c0,2.998,2.431,5.427,5.424,5.427c3.001,0,5.428-2.429,5.428-5.427c0-0.033-0.003-0.072-0.003-0.114
				C98.128,234.766,95.728,237.136,92.767,237.136z"/>
			<g>
				<defs>
					<filter id="Adobe_OpacityMaskFilter_8_" filterUnits="userSpaceOnUse" x="87.343" y="225.999" width="10.833" height="5.522">
						<feFlood  style="flood-color:white;flood-opacity:1" result="back"/>
						<feBlend  in="SourceGraphic" in2="back" mode="normal"/>
					</filter>
				</defs>
				<mask maskUnits="userSpaceOnUse" x="87.343" y="225.999" width="10.833" height="5.522" id="SVGID_16_">
					<g filter="url(#Adobe_OpacityMaskFilter_8_)">
						<defs>
							
								<filter id="Adobe_OpacityMaskFilter_9_" filterUnits="userSpaceOnUse" x="87.343" y="225.999" width="10.833" height="5.522">
								<feFlood  style="flood-color:white;flood-opacity:1" result="back"/>
								<feBlend  in="SourceGraphic" in2="back" mode="normal"/>
							</filter>
						</defs>
						<mask maskUnits="userSpaceOnUse" x="87.343" y="225.999" width="10.833" height="5.522" id="SVGID_16_">
							<g filter="url(#Adobe_OpacityMaskFilter_9_)">
							</g>
						</mask>
						<linearGradient id="SVGID_17_" gradientUnits="userSpaceOnUse" x1="92.76" y1="225.9121" x2="92.76" y2="231.5027">
							<stop  offset="0" style="stop-color:#FFFFFF"/>
							<stop  offset="1" style="stop-color:#000000"/>
						</linearGradient>
						<path mask="url(#SVGID_16_)" fill="url(#SVGID_17_)" d="M92.763,226.208c2.952,0,5.354,2.376,5.412,5.313
							c0-0.032,0.002-0.068,0.002-0.106c0-2.984-2.428-5.416-5.414-5.416c-2.988-0.002-5.419,2.424-5.419,5.413
							c0,0.037,0,0.07,0,0.106C87.402,228.578,89.81,226.206,92.763,226.208z"/>
					</g>
				</mask>
				<linearGradient id="SVGID_18_" gradientUnits="userSpaceOnUse" x1="92.76" y1="225.9121" x2="92.76" y2="231.5027">
					<stop  offset="0" style="stop-color:#20211A"/>
					<stop  offset="1" style="stop-color:#24211E"/>
				</linearGradient>
				<path fill="url(#SVGID_18_)" d="M92.763,226.208c2.952,0,5.354,2.376,5.412,5.313c0-0.032,0.002-0.068,0.002-0.106
					c0-2.984-2.428-5.416-5.414-5.416c-2.988-0.002-5.419,2.424-5.419,5.413c0,0.037,0,0.07,0,0.106
					C87.402,228.578,89.81,226.206,92.763,226.208z"/>
			</g>
			<g>
				<g opacity="0.25">
					<path fill="#13110C" d="M93.937,231.302c0.278,0,0.507,0.229,0.507,0.505v2.359c0,0.272-0.229,0.501-0.507,0.501h-2.355
						c-0.281,0-0.504-0.229-0.504-0.501v-2.359c0-0.276,0.223-0.505,0.504-0.505H93.937 M93.937,231.093h-2.355
						c-0.394,0-0.717,0.316-0.717,0.714v2.359c0,0.393,0.323,0.712,0.717,0.712h2.355c0.394,0,0.712-0.318,0.712-0.712v-2.359
						C94.648,231.409,94.33,231.093,93.937,231.093L93.937,231.093z"/>
				</g>
				<g>
					<linearGradient id="SVGID_19_" gradientUnits="userSpaceOnUse" x1="92.7564" y1="230.1634" x2="92.7564" y2="232.9458">
						<stop  offset="0" style="stop-color:#4D4B4C"/>
						<stop  offset="0.1849" style="stop-color:#514F51"/>
						<stop  offset="0.4681" style="stop-color:#605C5F"/>
						<stop  offset="0.8124" style="stop-color:#797578"/>
						<stop  offset="1" style="stop-color:#8A8589"/>
					</linearGradient>
					<path fill="url(#SVGID_19_)" d="M93.937,230.302c0.278,0,0.507,0.229,0.507,0.505v2.359c0,0.272-0.229,0.501-0.507,0.501
						h-2.355c-0.281,0-0.504-0.229-0.504-0.501v-2.359c0-0.276,0.223-0.505,0.504-0.505H93.937 M93.937,230.093h-2.355
						c-0.394,0-0.717,0.316-0.717,0.714v2.359c0,0.393,0.323,0.712,0.717,0.712h2.355c0.394,0,0.712-0.318,0.712-0.712v-2.359
						C94.648,230.409,94.33,230.093,93.937,230.093L93.937,230.093z"/>
				</g>
			</g>
		</g>
		<path opacity="0.35" fill="#13110C" d="M166.83,21.257H18.507c-0.495,0-0.899,0.402-0.899,0.899v198.11
			c0,0.494,0.403,0.898,0.899,0.898H166.83c0.497,0,0.9-0.404,0.9-0.898V22.156C167.73,21.659,167.327,21.257,166.83,21.257z
			 M167.579,220.267c0,0.415-0.335,0.752-0.749,0.752H18.507c-0.416,0-0.746-0.337-0.746-0.752V22.156c0-0.416,0.33-0.75,0.746-0.75
			H166.83c0.414,0,0.749,0.334,0.749,0.75V220.267z"/>
		<g>
			<g>
				
					<radialGradient id="SVGID_20_" cx="347.6643" cy="732.5151" r="5.0859" gradientTransform="matrix(-0.7071 0.7071 0.7071 0.7071 -177.9917 -751.5202)" gradientUnits="userSpaceOnUse">
					<stop  offset="0" style="stop-color:#605C5B"/>
					<stop  offset="0.2622" style="stop-color:#4B4846"/>
					<stop  offset="0.8532" style="stop-color:#14120D"/>
				</radialGradient>
				<path fill="url(#SVGID_20_)" d="M91.3,12.381c0.811,0.809,2.127,0.809,2.935,0c0.807-0.812,0.807-2.124,0-2.936
					c-0.809-0.809-2.124-0.809-2.935,0C90.491,10.257,90.491,11.569,91.3,12.381z"/>
				
					<radialGradient id="SVGID_21_" cx="347.7159" cy="732.6792" r="3.9392" gradientTransform="matrix(-0.7071 0.7071 0.7071 0.7071 -177.9917 -751.5202)" gradientUnits="userSpaceOnUse">
					<stop  offset="0" style="stop-color:#605C5B"/>
					<stop  offset="0.2622" style="stop-color:#4B4846"/>
					<stop  offset="0.8532" style="stop-color:#14120D"/>
				</radialGradient>
				<path fill="url(#SVGID_21_)" d="M91.464,12.218c0.719,0.723,1.89,0.723,2.609,0c0.723-0.722,0.723-1.89,0-2.608
					c-0.719-0.724-1.89-0.724-2.609,0C90.742,10.328,90.742,11.496,91.464,12.218z"/>
				
					<linearGradient id="SVGID_22_" gradientUnits="userSpaceOnUse" x1="347.6823" y1="732.1113" x2="347.6823" y2="729.7051" gradientTransform="matrix(-0.7071 0.7071 0.7071 0.7071 -177.9917 -751.5202)">
					<stop  offset="0" style="stop-color:#605C5B"/>
					<stop  offset="0.1086" style="stop-color:#5D5A58"/>
					<stop  offset="0.2547" style="stop-color:#555250"/>
					<stop  offset="0.4221" style="stop-color:#484543"/>
					<stop  offset="0.6055" style="stop-color:#353331"/>
					<stop  offset="0.7998" style="stop-color:#1C1B17"/>
					<stop  offset="0.8532" style="stop-color:#14120D"/>
				</linearGradient>
				<circle fill="url(#SVGID_22_)" cx="92.76" cy="10.924" r="1.545"/>
				
					<radialGradient id="SVGID_23_" cx="347.6658" cy="729.114" r="2.0779" gradientTransform="matrix(-0.7071 0.7071 0.7071 0.7071 -177.9917 -751.5202)" gradientUnits="userSpaceOnUse">
					<stop  offset="0.1265" style="stop-color:#4D4948"/>
					<stop  offset="0.2571" style="stop-color:#4B4745"/>
					<stop  offset="0.4328" style="stop-color:#433F3D"/>
					<stop  offset="0.6341" style="stop-color:#363331"/>
					<stop  offset="0.8529" style="stop-color:#23211E"/>
					<stop  offset="1" style="stop-color:#13110C"/>
				</radialGradient>
				<path fill="url(#SVGID_23_)" d="M91.763,11.922c0.552,0.549,1.456,0.549,2.012,0c0.553-0.559,0.553-1.457,0-2.011
					c-0.556-0.558-1.46-0.558-2.012,0C91.209,10.465,91.209,11.363,91.763,11.922z"/>
				<defs>
					<filter id="Adobe_OpacityMaskFilter_10_" filterUnits="userSpaceOnUse" x="91.314" y="9.458" width="2.838" height="2.843">
						<feFlood  style="flood-color:white;flood-opacity:1" result="back"/>
						<feBlend  in="SourceGraphic" in2="back" mode="normal"/>
					</filter>
				</defs>
				<mask maskUnits="userSpaceOnUse" x="91.314" y="9.458" width="2.838" height="2.843" id="SVGID_24_">
					<g filter="url(#Adobe_OpacityMaskFilter_10_)">
						<defs>
							<filter id="Adobe_OpacityMaskFilter_11_" filterUnits="userSpaceOnUse" x="91.314" y="9.458" width="2.838" height="2.843">
								<feFlood  style="flood-color:white;flood-opacity:1" result="back"/>
								<feBlend  in="SourceGraphic" in2="back" mode="normal"/>
							</filter>
						</defs>
						<mask maskUnits="userSpaceOnUse" x="91.314" y="9.458" width="2.838" height="2.843" id="SVGID_24_">
							<g filter="url(#Adobe_OpacityMaskFilter_11_)">
							</g>
						</mask>
						
							<radialGradient id="SVGID_25_" cx="347.6628" cy="730.8667" r="1.3497" gradientTransform="matrix(-0.7071 0.7071 0.7071 0.7071 -177.9917 -751.5202)" gradientUnits="userSpaceOnUse">
							<stop  offset="0.4535" style="stop-color:#FFFFFF"/>
							<stop  offset="0.4906" style="stop-color:#F9F9F9"/>
							<stop  offset="0.5407" style="stop-color:#E8E8E8"/>
							<stop  offset="0.598" style="stop-color:#CCCCCC"/>
							<stop  offset="0.6609" style="stop-color:#A4A4A4"/>
							<stop  offset="0.7282" style="stop-color:#727272"/>
							<stop  offset="0.7981" style="stop-color:#353535"/>
							<stop  offset="0.8532" style="stop-color:#000000"/>
						</radialGradient>
						<path mask="url(#SVGID_24_)" fill="url(#SVGID_25_)" d="M91.731,11.885c0.555,0.555,1.452,0.555,2.007,0
							c0.551-0.557,0.551-1.455,0-2.013c-0.556-0.553-1.453-0.553-2.007,0C91.174,10.43,91.174,11.328,91.731,11.885z"/>
					</g>
				</mask>
				
					<radialGradient id="SVGID_26_" cx="347.6628" cy="730.8667" r="1.3497" gradientTransform="matrix(-0.7071 0.7071 0.7071 0.7071 -177.9917 -751.5202)" gradientUnits="userSpaceOnUse">
					<stop  offset="0.4535" style="stop-color:#4D4948"/>
					<stop  offset="0.8532" style="stop-color:#4D4948"/>
				</radialGradient>
				<path fill="url(#SVGID_26_)" d="M91.731,11.885c0.555,0.555,1.452,0.555,2.007,0c0.551-0.557,0.551-1.455,0-2.013
					c-0.556-0.553-1.453-0.553-2.007,0C91.174,10.43,91.174,11.328,91.731,11.885z"/>
				<g>
					
						<radialGradient id="SVGID_27_" cx="347.6644" cy="730.5744" r="1.1193" gradientTransform="matrix(-0.7071 0.7071 0.7071 0.7071 -177.9917 -751.5202)" gradientUnits="userSpaceOnUse">
						<stop  offset="0" style="stop-color:#A6C1E0"/>
						<stop  offset="0.0489" style="stop-color:#A0BCDC"/>
						<stop  offset="0.1144" style="stop-color:#90AFCE"/>
						<stop  offset="0.189" style="stop-color:#749AB9"/>
						<stop  offset="0.2349" style="stop-color:#5F8BAA"/>
						<stop  offset="0.3554" style="stop-color:#3C5D7C"/>
						<stop  offset="0.3657" style="stop-color:#416484"/>
						<stop  offset="0.3865" style="stop-color:#496F8F"/>
						<stop  offset="0.4155" style="stop-color:#4D7596"/>
						<stop  offset="0.494" style="stop-color:#4F7798"/>
						<stop  offset="0.4966" style="stop-color:#4B7292"/>
						<stop  offset="0.5074" style="stop-color:#3E617F"/>
						<stop  offset="0.5208" style="stop-color:#375773"/>
						<stop  offset="0.539" style="stop-color:#32516D"/>
						<stop  offset="0.5843" style="stop-color:#314F6B"/>
						<stop  offset="0.5847" style="stop-color:#314F6B"/>
						<stop  offset="0.5937" style="stop-color:#2C445B"/>
						<stop  offset="0.604" style="stop-color:#283B4F"/>
						<stop  offset="0.6162" style="stop-color:#253446"/>
						<stop  offset="0.6312" style="stop-color:#223040"/>
						<stop  offset="0.6523" style="stop-color:#212D3D"/>
						<stop  offset="0.7108" style="stop-color:#202D3C"/>
						<stop  offset="0.8253" style="stop-color:#3B5B77"/>
						<stop  offset="0.8256" style="stop-color:#3B5A76"/>
						<stop  offset="0.8307" style="stop-color:#354A62"/>
						<stop  offset="0.8364" style="stop-color:#303E53"/>
						<stop  offset="0.8429" style="stop-color:#2B3447"/>
						<stop  offset="0.8505" style="stop-color:#272D3E"/>
						<stop  offset="0.8599" style="stop-color:#242838"/>
						<stop  offset="0.873" style="stop-color:#232534"/>
						<stop  offset="0.9096" style="stop-color:#222433"/>
						<stop  offset="0.9518" style="stop-color:#B0C9D4"/>
						<stop  offset="0.9569" style="stop-color:#9FB3BB"/>
						<stop  offset="0.9867" style="stop-color:#4C4C4B"/>
						<stop  offset="1" style="stop-color:#312E2B"/>
					</radialGradient>
					<path fill="url(#SVGID_27_)" d="M91.963,11.702c0.441,0.439,1.155,0.439,1.598,0c0.438-0.44,0.438-1.155,0-1.595
						c-0.443-0.441-1.157-0.441-1.598,0C91.519,10.547,91.519,11.262,91.963,11.702z"/>
					<defs>
						<filter id="Adobe_OpacityMaskFilter_12_" filterUnits="userSpaceOnUse" x="92.048" y="10.192" width="1.425" height="1.426">
							<feFlood  style="flood-color:white;flood-opacity:1" result="back"/>
							<feBlend  in="SourceGraphic" in2="back" mode="normal"/>
						</filter>
					</defs>
					<mask maskUnits="userSpaceOnUse" x="92.048" y="10.192" width="1.425" height="1.426" id="SVGID_28_">
						<g filter="url(#Adobe_OpacityMaskFilter_12_)">
							<defs>
								
									<filter id="Adobe_OpacityMaskFilter_13_" filterUnits="userSpaceOnUse" x="92.048" y="10.192" width="1.425" height="1.426">
									<feFlood  style="flood-color:white;flood-opacity:1" result="back"/>
									<feBlend  in="SourceGraphic" in2="back" mode="normal"/>
								</filter>
							</defs>
							<mask maskUnits="userSpaceOnUse" x="92.048" y="10.192" width="1.425" height="1.426" id="SVGID_28_">
								<g filter="url(#Adobe_OpacityMaskFilter_13_)">
								</g>
							</mask>
							
								<radialGradient id="SVGID_29_" cx="347.8956" cy="730.8795" r="1.0843" gradientTransform="matrix(-0.7071 0.7071 0.7071 0.7071 -177.9917 -751.5202)" gradientUnits="userSpaceOnUse">
								<stop  offset="0" style="stop-color:#000000"/>
								<stop  offset="0.3051" style="stop-color:#020202"/>
								<stop  offset="0.4151" style="stop-color:#090909"/>
								<stop  offset="0.4934" style="stop-color:#141414"/>
								<stop  offset="0.5568" style="stop-color:#252525"/>
								<stop  offset="0.6111" style="stop-color:#3B3B3B"/>
								<stop  offset="0.6591" style="stop-color:#575757"/>
								<stop  offset="0.7026" style="stop-color:#777777"/>
								<stop  offset="0.7426" style="stop-color:#9D9D9D"/>
								<stop  offset="0.7798" style="stop-color:#C8C8C8"/>
								<stop  offset="0.8128" style="stop-color:#F6F6F6"/>
								<stop  offset="0.8188" style="stop-color:#FFFFFF"/>
							</radialGradient>
							<path mask="url(#SVGID_28_)" fill="url(#SVGID_29_)" d="M92.259,11.409c0.274,0.278,0.725,0.278,1.004,0
								c0.28-0.275,0.28-0.732,0-1.008c-0.279-0.279-0.73-0.279-1.004,0C91.978,10.677,91.978,11.134,92.259,11.409z"/>
						</g>
					</mask>
					
						<radialGradient id="SVGID_30_" cx="347.8956" cy="730.8795" r="1.0843" gradientTransform="matrix(-0.7071 0.7071 0.7071 0.7071 -177.9917 -751.5202)" gradientUnits="userSpaceOnUse">
						<stop  offset="0" style="stop-color:#202D3C"/>
						<stop  offset="0.5201" style="stop-color:#212C3B"/>
						<stop  offset="0.7072" style="stop-color:#222938"/>
						<stop  offset="0.8188" style="stop-color:#222433"/>
					</radialGradient>
					<path fill="url(#SVGID_30_)" d="M92.259,11.409c0.274,0.278,0.725,0.278,1.004,0c0.28-0.275,0.28-0.732,0-1.008
						c-0.279-0.279-0.73-0.279-1.004,0C91.978,10.677,91.978,11.134,92.259,11.409z"/>
					<defs>
						<filter id="Adobe_OpacityMaskFilter_14_" filterUnits="userSpaceOnUse" x="92.152" y="11.022" width="1.412" height="0.831">
							<feFlood  style="flood-color:white;flood-opacity:1" result="back"/>
							<feBlend  in="SourceGraphic" in2="back" mode="normal"/>
						</filter>
					</defs>
					<mask maskUnits="userSpaceOnUse" x="92.152" y="11.022" width="1.412" height="0.831" id="SVGID_31_">
						<g filter="url(#Adobe_OpacityMaskFilter_14_)">
							<defs>
								
									<filter id="Adobe_OpacityMaskFilter_15_" filterUnits="userSpaceOnUse" x="92.152" y="11.022" width="1.412" height="0.831">
									<feFlood  style="flood-color:white;flood-opacity:1" result="back"/>
									<feBlend  in="SourceGraphic" in2="back" mode="normal"/>
								</filter>
							</defs>
							<mask maskUnits="userSpaceOnUse" x="92.152" y="11.022" width="1.412" height="0.831" id="SVGID_31_">
								<g filter="url(#Adobe_OpacityMaskFilter_15_)">
								</g>
							</mask>
							
								<radialGradient id="SVGID_32_" cx="347.7042" cy="730.6141" r="0.9084" gradientTransform="matrix(-0.7071 0.7071 0.7071 0.7071 -177.9917 -751.5202)" gradientUnits="userSpaceOnUse">
								<stop  offset="0.0241" style="stop-color:#000000"/>
								<stop  offset="0.1206" style="stop-color:#060606"/>
								<stop  offset="0.2511" style="stop-color:#171717"/>
								<stop  offset="0.4009" style="stop-color:#343434"/>
								<stop  offset="0.564" style="stop-color:#5B5B5B"/>
								<stop  offset="0.5964" style="stop-color:#636363"/>
								<stop  offset="0.6538" style="stop-color:#696969"/>
								<stop  offset="0.7281" style="stop-color:#797979"/>
								<stop  offset="0.8115" style="stop-color:#949494"/>
								<stop  offset="0.8253" style="stop-color:#999999"/>
								<stop  offset="1" style="stop-color:#DEDEDE"/>
							</radialGradient>
							<path mask="url(#SVGID_31_)" fill="url(#SVGID_32_)" d="M92.152,11.624c0.031-0.138,0.106-0.265,0.21-0.371
								c0.31-0.309,0.804-0.309,1.11,0c0.032,0.036,0.065,0.072,0.092,0.113c-0.042,0.077-0.097,0.152-0.158,0.22
								C93.062,11.929,92.516,11.94,92.152,11.624z"/>
						</g>
					</mask>
					
						<radialGradient id="SVGID_33_" cx="347.7042" cy="730.6141" r="0.9084" gradientTransform="matrix(-0.7071 0.7071 0.7071 0.7071 -177.9917 -751.5202)" gradientUnits="userSpaceOnUse">
						<stop  offset="0.0241" style="stop-color:#FFFFFF"/>
						<stop  offset="0.209" style="stop-color:#FAFDFF"/>
						<stop  offset="0.4582" style="stop-color:#ECF7FE"/>
						<stop  offset="0.5964" style="stop-color:#E1F3FE"/>
						<stop  offset="0.7582" style="stop-color:#E6F5FE"/>
						<stop  offset="0.8253" style="stop-color:#EAF6FE"/>
						<stop  offset="1" style="stop-color:#FFFFFF"/>
					</radialGradient>
					<path fill="url(#SVGID_33_)" d="M92.152,11.624c0.031-0.138,0.106-0.265,0.21-0.371c0.31-0.309,0.804-0.309,1.11,0
						c0.032,0.036,0.065,0.072,0.092,0.113c-0.042,0.077-0.097,0.152-0.158,0.22C93.062,11.929,92.516,11.94,92.152,11.624z"/>
					<defs>
						<filter id="Adobe_OpacityMaskFilter_16_" filterUnits="userSpaceOnUse" x="92.17" y="9.986" width="1.24" height="0.55">
							<feFlood  style="flood-color:white;flood-opacity:1" result="back"/>
							<feBlend  in="SourceGraphic" in2="back" mode="normal"/>
						</filter>
					</defs>
					<mask maskUnits="userSpaceOnUse" x="92.17" y="9.986" width="1.24" height="0.55" id="SVGID_34_">
						<g filter="url(#Adobe_OpacityMaskFilter_16_)">
							<defs>
								<filter id="Adobe_OpacityMaskFilter_17_" filterUnits="userSpaceOnUse" x="92.17" y="9.986" width="1.24" height="0.55">
									<feFlood  style="flood-color:white;flood-opacity:1" result="back"/>
									<feBlend  in="SourceGraphic" in2="back" mode="normal"/>
								</filter>
							</defs>
							<mask maskUnits="userSpaceOnUse" x="92.17" y="9.986" width="1.24" height="0.55" id="SVGID_34_">
								<g filter="url(#Adobe_OpacityMaskFilter_17_)">
								</g>
							</mask>
							
								<radialGradient id="SVGID_35_" cx="347.6766" cy="730.6144" r="0.9645" gradientTransform="matrix(-0.7071 0.7071 0.7071 0.7071 -177.9917 -751.5202)" gradientUnits="userSpaceOnUse">
								<stop  offset="0.3795" style="stop-color:#FFFFFF"/>
								<stop  offset="0.5655" style="stop-color:#FDFDFD"/>
								<stop  offset="0.6324" style="stop-color:#F6F6F6"/>
								<stop  offset="0.6802" style="stop-color:#EBEBEB"/>
								<stop  offset="0.7188" style="stop-color:#DADADA"/>
								<stop  offset="0.7518" style="stop-color:#C4C4C4"/>
								<stop  offset="0.7811" style="stop-color:#A8A8A8"/>
								<stop  offset="0.8069" style="stop-color:#898989"/>
								<stop  offset="0.8305" style="stop-color:#656565"/>
								<stop  offset="0.8313" style="stop-color:#636363"/>
								<stop  offset="0.8555" style="stop-color:#696969"/>
								<stop  offset="0.8868" style="stop-color:#797979"/>
								<stop  offset="0.9219" style="stop-color:#949494"/>
								<stop  offset="0.9277" style="stop-color:#999999"/>
								<stop  offset="1" style="stop-color:#000000"/>
							</radialGradient>
							<path mask="url(#SVGID_34_)" fill="url(#SVGID_35_)" d="M93.409,10.24l-0.292,0.296c-0.049-0.046-0.106-0.081-0.166-0.104
								l0.102-0.399C93.183,10.071,93.304,10.143,93.409,10.24z M92.17,10.216l0.294,0.294c0.119-0.093,0.263-0.128,0.407-0.103
								l0.105-0.398C92.697,9.947,92.397,10.013,92.17,10.216z"/>
						</g>
					</mask>
					
						<radialGradient id="SVGID_36_" cx="347.6766" cy="730.6144" r="0.9645" gradientTransform="matrix(-0.7071 0.7071 0.7071 0.7071 -177.9917 -751.5202)" gradientUnits="userSpaceOnUse">
						<stop  offset="0.3795" style="stop-color:#FFFFFF"/>
						<stop  offset="0.6292" style="stop-color:#FEFEFF"/>
						<stop  offset="0.7191" style="stop-color:#F8FCFF"/>
						<stop  offset="0.783" style="stop-color:#EEF8FE"/>
						<stop  offset="0.8313" style="stop-color:#E1F3FE"/>
						<stop  offset="0.8497" style="stop-color:#DCF1FD"/>
						<stop  offset="0.8735" style="stop-color:#CEEBFC"/>
						<stop  offset="0.9002" style="stop-color:#B4E1FA"/>
						<stop  offset="0.9277" style="stop-color:#8DD3F6"/>
						<stop  offset="1" style="stop-color:#FFFFFF"/>
					</radialGradient>
					<path fill="url(#SVGID_36_)" d="M93.409,10.24l-0.292,0.296c-0.049-0.046-0.106-0.081-0.166-0.104l0.102-0.399
						C93.183,10.071,93.304,10.143,93.409,10.24z M92.17,10.216l0.294,0.294c0.119-0.093,0.263-0.128,0.407-0.103l0.105-0.398
						C92.697,9.947,92.397,10.013,92.17,10.216z"/>
					<defs>
						<filter id="Adobe_OpacityMaskFilter_18_" filterUnits="userSpaceOnUse" x="92.651" y="11.452" width="0.384" height="0.293">
							<feFlood  style="flood-color:white;flood-opacity:1" result="back"/>
							<feBlend  in="SourceGraphic" in2="back" mode="normal"/>
						</filter>
					</defs>
					<mask maskUnits="userSpaceOnUse" x="92.651" y="11.452" width="0.384" height="0.293" id="SVGID_37_">
						<g filter="url(#Adobe_OpacityMaskFilter_18_)">
							<defs>
								
									<filter id="Adobe_OpacityMaskFilter_19_" filterUnits="userSpaceOnUse" x="92.651" y="11.452" width="0.384" height="0.293">
									<feFlood  style="flood-color:white;flood-opacity:1" result="back"/>
									<feBlend  in="SourceGraphic" in2="back" mode="normal"/>
								</filter>
							</defs>
							<mask maskUnits="userSpaceOnUse" x="92.651" y="11.452" width="0.384" height="0.293" id="SVGID_37_">
								<g filter="url(#Adobe_OpacityMaskFilter_19_)">
								</g>
							</mask>
							
								<radialGradient id="SVGID_38_" cx="-336.4524" cy="89.5205" r="0.2819" gradientTransform="matrix(-0.9827 0.1851 0.1851 0.9827 -254.2846 -14.2331)" gradientUnits="userSpaceOnUse">
								<stop  offset="0.0241" style="stop-color:#000000"/>
								<stop  offset="0.1228" style="stop-color:#060606"/>
								<stop  offset="0.2564" style="stop-color:#171717"/>
								<stop  offset="0.4099" style="stop-color:#343434"/>
								<stop  offset="0.5782" style="stop-color:#5B5B5B"/>
								<stop  offset="0.7587" style="stop-color:#8E8E8E"/>
								<stop  offset="0.9465" style="stop-color:#CBCBCB"/>
								<stop  offset="1" style="stop-color:#DEDEDE"/>
							</radialGradient>
							<path mask="url(#SVGID_37_)" fill="url(#SVGID_38_)" d="M92.652,11.635c0.019,0.078,0.115,0.126,0.218,0.106
								c0.105-0.02,0.176-0.1,0.163-0.176c-0.016-0.084-0.11-0.128-0.215-0.107C92.716,11.477,92.64,11.556,92.652,11.635z"/>
						</g>
					</mask>
					
						<radialGradient id="SVGID_39_" cx="-336.4524" cy="89.5205" r="0.2819" gradientTransform="matrix(-0.9827 0.1851 0.1851 0.9827 -254.2846 -14.2331)" gradientUnits="userSpaceOnUse">
						<stop  offset="0.0241" style="stop-color:#FFFFFF"/>
						<stop  offset="1" style="stop-color:#FFFFFF"/>
					</radialGradient>
					<path fill="url(#SVGID_39_)" d="M92.652,11.635c0.019,0.078,0.115,0.126,0.218,0.106c0.105-0.02,0.176-0.1,0.163-0.176
						c-0.016-0.084-0.11-0.128-0.215-0.107C92.716,11.477,92.64,11.556,92.652,11.635z"/>
					<defs>
						<filter id="Adobe_OpacityMaskFilter_20_" filterUnits="userSpaceOnUse" x="92.678" y="11.048" width="0.225" height="0.173">
							<feFlood  style="flood-color:white;flood-opacity:1" result="back"/>
							<feBlend  in="SourceGraphic" in2="back" mode="normal"/>
						</filter>
					</defs>
					<mask maskUnits="userSpaceOnUse" x="92.678" y="11.048" width="0.225" height="0.173" id="SVGID_40_">
						<g filter="url(#Adobe_OpacityMaskFilter_20_)">
							<defs>
								
									<filter id="Adobe_OpacityMaskFilter_21_" filterUnits="userSpaceOnUse" x="92.678" y="11.048" width="0.225" height="0.173">
									<feFlood  style="flood-color:white;flood-opacity:1" result="back"/>
									<feBlend  in="SourceGraphic" in2="back" mode="normal"/>
								</filter>
							</defs>
							<mask maskUnits="userSpaceOnUse" x="92.678" y="11.048" width="0.225" height="0.173" id="SVGID_40_">
								<g filter="url(#Adobe_OpacityMaskFilter_21_)">
								</g>
							</mask>
							
								<radialGradient id="SVGID_41_" cx="-336.4452" cy="89.1033" r="0.1662" gradientTransform="matrix(-0.9827 0.1851 0.1851 0.9827 -254.2846 -14.2331)" gradientUnits="userSpaceOnUse">
								<stop  offset="0" style="stop-color:#DEDEDE"/>
								<stop  offset="0.0941" style="stop-color:#D5D5D5"/>
								<stop  offset="0.2459" style="stop-color:#BDBDBD"/>
								<stop  offset="0.4367" style="stop-color:#969696"/>
								<stop  offset="0.659" style="stop-color:#606060"/>
								<stop  offset="0.9047" style="stop-color:#1C1C1C"/>
								<stop  offset="1" style="stop-color:#000000"/>
							</radialGradient>
							<path mask="url(#SVGID_40_)" fill="url(#SVGID_41_)" d="M92.679,11.155c0.012,0.047,0.066,0.073,0.128,0.064
								c0.063-0.011,0.106-0.061,0.094-0.104c-0.009-0.048-0.062-0.075-0.126-0.065C92.71,11.064,92.671,11.11,92.679,11.155z"/>
						</g>
					</mask>
					
						<radialGradient id="SVGID_42_" cx="-336.4452" cy="89.1033" r="0.1662" gradientTransform="matrix(-0.9827 0.1851 0.1851 0.9827 -254.2846 -14.2331)" gradientUnits="userSpaceOnUse">
						<stop  offset="0" style="stop-color:#FFFFFF"/>
						<stop  offset="1" style="stop-color:#FFFFFF"/>
					</radialGradient>
					<path fill="url(#SVGID_42_)" d="M92.679,11.155c0.012,0.047,0.066,0.073,0.128,0.064c0.063-0.011,0.106-0.061,0.094-0.104
						c-0.009-0.048-0.062-0.075-0.126-0.065C92.71,11.064,92.671,11.11,92.679,11.155z"/>
					<defs>
						<filter id="Adobe_OpacityMaskFilter_22_" filterUnits="userSpaceOnUse" x="92.623" y="10.564" width="0.155" height="0.118">
							<feFlood  style="flood-color:white;flood-opacity:1" result="back"/>
							<feBlend  in="SourceGraphic" in2="back" mode="normal"/>
						</filter>
					</defs>
					<mask maskUnits="userSpaceOnUse" x="92.623" y="10.564" width="0.155" height="0.118" id="SVGID_43_">
						<g filter="url(#Adobe_OpacityMaskFilter_22_)">
							<defs>
								
									<filter id="Adobe_OpacityMaskFilter_23_" filterUnits="userSpaceOnUse" x="92.623" y="10.564" width="0.155" height="0.118">
									<feFlood  style="flood-color:white;flood-opacity:1" result="back"/>
									<feBlend  in="SourceGraphic" in2="back" mode="normal"/>
								</filter>
							</defs>
							<mask maskUnits="userSpaceOnUse" x="92.623" y="10.564" width="0.155" height="0.118" id="SVGID_43_">
								<g filter="url(#Adobe_OpacityMaskFilter_23_)">
								</g>
							</mask>
							
								<radialGradient id="SVGID_44_" cx="-336.4337" cy="88.6082" r="0.1139" gradientTransform="matrix(-0.9827 0.1851 0.1851 0.9827 -254.2846 -14.2331)" gradientUnits="userSpaceOnUse">
								<stop  offset="0" style="stop-color:#DEDEDE"/>
								<stop  offset="0.1199" style="stop-color:#CBCBCB"/>
								<stop  offset="0.3636" style="stop-color:#999999"/>
								<stop  offset="0.7057" style="stop-color:#494949"/>
								<stop  offset="1" style="stop-color:#000000"/>
							</radialGradient>
							<path mask="url(#SVGID_43_)" fill="url(#SVGID_44_)" d="M92.624,10.639c0.008,0.031,0.048,0.048,0.086,0.043
								c0.045-0.008,0.077-0.043,0.067-0.072c-0.004-0.031-0.043-0.052-0.086-0.043C92.65,10.572,92.618,10.603,92.624,10.639z"/>
						</g>
					</mask>
					
						<radialGradient id="SVGID_45_" cx="-336.4337" cy="88.6082" r="0.1139" gradientTransform="matrix(-0.9827 0.1851 0.1851 0.9827 -254.2846 -14.2331)" gradientUnits="userSpaceOnUse">
						<stop  offset="0" style="stop-color:#FFFFFF"/>
						<stop  offset="1" style="stop-color:#FFFFFF"/>
					</radialGradient>
					<path fill="url(#SVGID_45_)" d="M92.624,10.639c0.008,0.031,0.048,0.048,0.086,0.043c0.045-0.008,0.077-0.043,0.067-0.072
						c-0.004-0.031-0.043-0.052-0.086-0.043C92.65,10.572,92.618,10.603,92.624,10.639z"/>
				</g>
			</g>
		</g>
		<path fill="#F4F4F4" d="M8.154,242.129c0.011-0.002,0.018-0.002,0.035-0.002C8.172,242.127,8.165,242.127,8.154,242.129z"/>
		<path fill="#F4F4F4" d="M8.611,242.098c0.156-0.012,0.305-0.014,0.464-0.014C8.916,242.084,8.768,242.086,8.611,242.098z"/>
		<linearGradient id="SVGID_46_" gradientUnits="userSpaceOnUse" x1="-0.268" y1="242.1124" x2="185.0959" y2="242.1124">
			<stop  offset="0" style="stop-color:#605C5B"/>
			<stop  offset="1" style="stop-color:#BEBBBB"/>
		</linearGradient>
		<path fill="url(#SVGID_46_)" d="M8.189,242.127c0.137-0.014,0.279-0.026,0.422-0.029C8.468,242.101,8.326,242.113,8.189,242.127z"
			/>
	</g>
</g>
</svg>