<!-- Generator: Adobe Illustrator 18.1.1, SVG Export Plug-In  -->
<svg version="1.1"
	 xmlns="http://www.w3.org/2000/svg" xmlns:xlink="http://www.w3.org/1999/xlink" xmlns:a="http://ns.adobe.com/AdobeSVGViewerExtensions/3.0/"
	 x="0px" y="0px" width="201.436px" height="66.139px" viewBox="0 0 201.436 66.139" enable-background="new 0 0 201.436 66.139"
	 xml:space="preserve">
<defs>
</defs>
<g>
	<g>
		<path fill="#ABA9AC" d="M7.942,46.652c0.302,0.478,1.561-0.082,1.561-0.082l-0.092-1.736l-0.804-0.36c0,0-0.972,0.609-0.91,1.232
			C7.755,46.317,7.942,46.652,7.942,46.652z"/>
		
			<linearGradient id="SVGID_3_" gradientUnits="userSpaceOnUse" x1="29.6842" y1="140.6073" x2="204.7209" y2="140.6073" gradientTransform="matrix(0.9986 -0.053 0.053 0.9986 -28.8641 -89.9863)">
			<stop  offset="0" style="stop-color:#D6D6D6"/>
			<stop  offset="0.2158" style="stop-color:#BFBFBF"/>
			<stop  offset="0.5483" style="stop-color:#9F9F9F"/>
			<stop  offset="0.8133" style="stop-color:#8B8B8A"/>
			<stop  offset="0.9758" style="stop-color:#838382"/>
		</linearGradient>
		<path fill="url(#SVGID_3_)" d="M178.301,52.424c-5.485,2.97-17.216,7.807-35.969-0.463C122.105,43.047,88.61,27.52,57.055,29.191
			C27.02,30.791,8.877,41.166,8.063,45.689c0.139,0.425,0.271,0.593,0.271,0.593c0.06,0.126,0.51,0.427,0.625,0.563
			c-1-4.067,16.843-14.838,48.392-16.514c31.555-1.675,65.05,13.85,85.284,22.77c16.329,7.197,27.332,4.455,33.53,1.664
			c3.119-1.67,5.64-3.719,7.087-6.236c0.176-0.27,0.234-0.528,0.201-0.755C182.555,49.352,181.061,50.931,178.301,52.424z"/>
		<g>
			<g>
				<defs>
					<path id="SVGID_2_" d="M7.664,39.561C48.631,3.398,106.823,0,144.124,12.238c37.295,12.229,50.303,28.537,35.057,37.225
						c-15.24,8.692-41.768-6.276-67.556-15.73C85.871,24.304,35.667,17.221,7.664,39.561z"/>
				</defs>
				<clipPath id="SVGID_4_">
					<use xlink:href="#SVGID_2_"  overflow="visible"/>
				</clipPath>
				<rect x="7.664" y="0" clip-path="url(#SVGID_4_)" fill="#FFFFFF" width="186.763" height="58.155"/>
				<path clip-path="url(#SVGID_4_)" fill="#FFFFFF" d="M195.427,59.155H136.64h-29.935v4.429c-2.645-2.126-5.031-4.345-7.128-6.623
					c-8.389-9.113-12.15-19.178-9.294-28.034c5.712-17.713,35.728-23.885,67.041-13.785c15.657,5.05,28.675,13.212,37.064,22.325
					c2.097,2.278,3.905,4.616,5.393,6.98h-4.354V59.155z"/>
				<path clip-path="url(#SVGID_4_)" fill="#FFFFFF" d="M195.427,59.155h-58.453h-28.97v3.901c-2.559-2.058-4.869-4.205-6.898-6.409
					c-8.118-8.819-11.758-18.56-8.994-27.131c5.527-17.142,34.574-23.114,64.879-13.34c15.152,4.887,27.749,12.784,35.868,21.604
					c4.06,4.409,6.998,9.05,8.578,13.658h-6.01V59.155z"/>
				<path clip-path="url(#SVGID_4_)" fill="#FEFEFE" d="M195.427,59.155h-58.12h-28.003v3.372c-2.474-1.988-4.706-4.064-6.668-6.195
					c-7.848-8.525-11.366-17.94-8.694-26.226c5.343-16.57,33.422-22.344,62.716-12.896c14.648,4.725,26.825,12.359,34.673,20.885
					c3.924,4.263,6.766,8.748,8.292,13.203h-4.194V59.155z"/>
				<path clip-path="url(#SVGID_4_)" fill="#FDFDFD" d="M195.427,59.155h-57.786h-27.038V62c-2.389-1.92-4.544-3.925-6.438-5.982
					c-7.577-8.231-10.974-17.322-8.395-25.321c5.159-15.999,32.27-21.573,60.553-12.45c14.143,4.561,25.9,11.933,33.477,20.164
					c7.577,8.231,10.974,17.322,8.395,25.321L195.427,59.155z"/>
				<path clip-path="url(#SVGID_4_)" fill="#FDFDFD" d="M195.427,59.155h-57.452h-26.072v2.316
					c-2.304-1.852-4.382-3.784-6.209-5.769C98.387,47.766,95.111,39,97.599,31.286c4.975-15.428,31.116-20.803,58.391-12.006
					c27.274,8.797,45.35,28.434,40.376,43.861L195.427,59.155z"/>
				<path clip-path="url(#SVGID_4_)" fill="#FCFCFC" d="M194.536,59.155h-56.229h-17.828v6.874
					c-5.25-3.196-9.739-6.818-13.257-10.64c-7.036-7.643-10.19-16.085-7.795-23.514c4.791-14.855,29.965-20.032,56.229-11.562
					c26.263,8.471,43.671,27.381,38.88,42.237V59.155z"/>
				<path clip-path="url(#SVGID_4_)" fill="#FBFBFB" d="M192.707,59.155h-54.065h-17.144v6.15
					c-5.048-3.073-9.363-6.557-12.746-10.231c-6.766-7.35-9.799-15.466-7.496-22.608c4.606-14.284,28.812-19.262,54.066-11.116
					c25.254,8.145,41.991,26.327,37.385,40.612V59.155z"/>
				<path clip-path="url(#SVGID_4_)" fill="#FBFBFB" d="M190.878,59.155h-51.902h-16.458v5.428
					c-4.846-2.95-8.989-6.294-12.237-9.822c-6.495-7.056-9.406-14.849-7.195-21.705c4.422-13.713,27.66-18.491,51.903-10.672
					c24.243,7.819,40.312,25.274,35.89,38.988V59.155z"/>
				<path clip-path="url(#SVGID_4_)" fill="#FAFAFA" d="M189.049,59.155H139.31h-15.773v4.702
					c-4.644-2.827-8.615-6.031-11.727-9.412c-6.225-6.761-9.015-14.229-6.896-20.8c4.238-13.142,26.507-17.721,49.741-10.227
					c23.233,7.493,38.632,24.221,34.393,37.363V59.155z"/>
				<path clip-path="url(#SVGID_4_)" fill="#F9F9F9" d="M187.22,59.155h-47.577h-15.086v3.979c-4.442-2.704-8.24-5.769-11.218-9.003
					c-5.953-6.467-8.622-13.609-6.595-19.896c4.053-12.57,25.354-16.95,47.578-9.782c22.223,7.168,36.952,23.168,32.898,35.739
					V59.155z"/>
				<path clip-path="url(#SVGID_4_)" fill="#F9F9F8" d="M185.391,59.155h-45.414h-14.4v3.256c-4.241-2.581-7.866-5.507-10.708-8.594
					c-5.683-6.173-8.23-12.991-6.295-18.991c3.87-12,24.202-16.181,45.416-9.339c21.213,6.842,35.272,22.115,31.402,34.114V59.155z"
					/>
				<path clip-path="url(#SVGID_4_)" fill="#F8F8F8" d="M183.562,59.012c-0.922,2.857-2.822,5.249-5.472,7.127v-6.983h-51.496v2.532
					c-4.039-2.458-7.491-5.244-10.197-8.185c-5.412-5.88-7.838-12.373-5.996-18.087c3.685-11.428,23.05-15.41,43.253-8.894
					C173.856,33.038,187.247,47.584,183.562,59.012z"/>
				<path clip-path="url(#SVGID_4_)" fill="#F7F7F7" d="M181.733,58.422c-0.875,2.714-2.682,4.986-5.198,6.771v-6.037h-48.921v1.808
					c-3.837-2.336-7.116-4.982-9.688-7.775c-5.142-5.585-7.446-11.754-5.696-17.182c3.501-10.856,21.897-14.64,41.09-8.449
					C172.514,33.747,185.234,47.566,181.733,58.422z"/>
				<path clip-path="url(#SVGID_4_)" fill="#F6F6F6" d="M179.904,57.832c-0.829,2.571-2.54,4.724-4.924,6.414v-5.091h-34.004v6.681
					c-18.183-5.864-30.233-18.956-26.917-29.24c3.316-10.285,20.745-13.869,38.927-8.004
					C171.169,34.456,183.221,47.548,179.904,57.832z"/>
				<path clip-path="url(#SVGID_4_)" fill="#F6F6F6" d="M178.075,57.242c-0.783,2.429-2.399,4.461-4.651,6.058v-4.145h-32.113v5.646
					c-17.172-5.539-28.555-17.903-25.422-27.616c3.133-9.714,19.592-13.099,36.765-7.56
					C169.826,35.165,181.207,47.529,178.075,57.242z"/>
				<path clip-path="url(#SVGID_4_)" fill="#F5F5F5" d="M176.246,56.652c-1.474,4.571-6.083,7.652-12.345,8.94v-6.437h-22.258v4.612
					c-16.162-5.213-26.874-16.851-23.926-25.992c2.947-9.143,18.439-12.327,34.601-7.115
					C168.481,35.873,179.194,47.511,176.246,56.652z"/>
				<path clip-path="url(#SVGID_4_)" fill="#F4F4F4" d="M174.417,56.063c-1.382,4.285-5.703,7.175-11.574,8.382v-5.289h-20.865
					v3.577c-15.151-4.887-25.195-15.797-22.431-24.367c2.764-8.571,17.287-11.557,32.438-6.67
					C167.139,36.582,177.181,47.492,174.417,56.063z"/>
				<path clip-path="url(#SVGID_4_)" fill="#F3F3F3" d="M172.589,55.473c-1.29,4-5.324,6.696-10.803,7.822v-4.14h-19.475v2.543
					c-14.143-4.562-23.515-14.744-20.935-22.743c2.579-7.999,16.134-10.786,30.276-6.225
					C165.794,37.291,175.168,47.474,172.589,55.473z"/>
				
					<ellipse transform="matrix(0.9517 0.307 -0.307 0.9517 21.5888 -42.8384)" clip-path="url(#SVGID_4_)" fill="#F3F2F2" cx="146.982" cy="47.214" rx="24.983" ry="14.131"/>
				
					<ellipse transform="matrix(0.9517 0.307 -0.307 0.9517 21.5891 -42.8389)" clip-path="url(#SVGID_4_)" fill="#F2F2F2" cx="146.982" cy="47.214" rx="23.062" ry="13.045"/>
				
					<ellipse transform="matrix(0.9517 0.307 -0.307 0.9517 21.5895 -42.8395)" clip-path="url(#SVGID_4_)" fill="#F1F1F1" cx="146.982" cy="47.214" rx="21.14" ry="11.958"/>
				
					<ellipse transform="matrix(0.9517 0.307 -0.307 0.9517 21.59 -42.8402)" clip-path="url(#SVGID_4_)" fill="#F0F0F0" cx="146.982" cy="47.214" rx="19.218" ry="10.87"/>
				
					<ellipse transform="matrix(0.9517 0.307 -0.307 0.9517 21.5906 -42.841)" clip-path="url(#SVGID_4_)" fill="#EFEFEF" cx="146.982" cy="47.214" rx="17.296" ry="9.784"/>
				
					<ellipse transform="matrix(0.9517 0.307 -0.307 0.9517 21.5907 -42.841)" clip-path="url(#SVGID_4_)" fill="#EFEFEE" cx="146.982" cy="47.214" rx="15.375" ry="8.696"/>
				
					<ellipse transform="matrix(0.9517 0.3069 -0.3069 0.9517 21.5853 -42.8335)" clip-path="url(#SVGID_4_)" fill="#EEEEEE" cx="146.982" cy="47.214" rx="13.452" ry="7.609"/>
				
					<ellipse transform="matrix(0.9517 0.3069 -0.3069 0.9517 21.5854 -42.8337)" clip-path="url(#SVGID_4_)" fill="#EDEDED" cx="146.982" cy="47.214" rx="11.531" ry="6.522"/>
				
					<ellipse transform="matrix(0.9517 0.3069 -0.3069 0.9517 21.5861 -42.8345)" clip-path="url(#SVGID_4_)" fill="#ECECEC" cx="146.982" cy="47.214" rx="9.609" ry="5.435"/>
				
					<ellipse transform="matrix(0.9517 0.3069 -0.3069 0.9517 21.5859 -42.8342)" clip-path="url(#SVGID_4_)" fill="#EBEBEB" cx="146.982" cy="47.214" rx="7.687" ry="4.348"/>
				
					<ellipse transform="matrix(0.9517 0.3069 -0.3069 0.9517 21.587 -42.8358)" clip-path="url(#SVGID_4_)" fill="#EBEBEA" cx="146.982" cy="47.214" rx="5.765" ry="3.261"/>
				
					<ellipse transform="matrix(0.9517 0.3069 -0.3069 0.9517 21.5846 -42.8324)" clip-path="url(#SVGID_4_)" fill="#EAEAEA" cx="146.981" cy="47.214" rx="3.844" ry="2.174"/>
				
					<ellipse transform="matrix(0.9517 0.3069 -0.3069 0.9517 21.5848 -42.8327)" clip-path="url(#SVGID_4_)" fill="#E9E9E9" cx="146.981" cy="47.214" rx="1.922" ry="1.086"/>
			</g>
		</g>
		<g>
			
				<linearGradient id="SVGID_5_" gradientUnits="userSpaceOnUse" x1="28.0697" y1="131.1122" x2="203.6016" y2="131.1122" gradientTransform="matrix(0.9986 -0.053 0.053 0.9986 -28.8641 -89.9863)">
				<stop  offset="0" style="stop-color:#B9B7BB"/>
				<stop  offset="2.317171e-04" style="stop-color:#BBB8BD"/>
				<stop  offset="0.0034" style="stop-color:#CDCCD0"/>
				<stop  offset="0.0071" style="stop-color:#DBDCDF"/>
				<stop  offset="0.0117" style="stop-color:#E5E7EA"/>
				<stop  offset="0.0182" style="stop-color:#EBEEF1"/>
				<stop  offset="0.0361" style="stop-color:#EDEFF3"/>
				<stop  offset="0.1205" style="stop-color:#FBFCFD"/>
				<stop  offset="0.1743" style="stop-color:#F5F6F8"/>
				<stop  offset="0.488" style="stop-color:#D5D7DA"/>
				<stop  offset="0.6506" style="stop-color:#D5D7DA"/>
				<stop  offset="0.8373" style="stop-color:#F4F5F7"/>
				<stop  offset="0.912" style="stop-color:#F3F3F5"/>
				<stop  offset="0.9388" style="stop-color:#EDEDF0"/>
				<stop  offset="0.958" style="stop-color:#E3E3E6"/>
				<stop  offset="0.9735" style="stop-color:#D4D4D8"/>
				<stop  offset="0.9867" style="stop-color:#C2C2C7"/>
				<stop  offset="0.9983" style="stop-color:#AAACB2"/>
				<stop  offset="1" style="stop-color:#A6A9AE"/>
			</linearGradient>
			<path fill="url(#SVGID_5_)" d="M7.892,39.283c-0.052,0.039-0.103,0.091-0.157,0.135c-0.005,0.003-0.013,0.016-0.027,0.029
				C7.768,39.391,7.832,39.334,7.892,39.283z"/>
			
				<linearGradient id="SVGID_6_" gradientUnits="userSpaceOnUse" x1="28.0218" y1="137.4101" x2="205.3191" y2="137.4101" gradientTransform="matrix(0.9986 -0.053 0.053 0.9986 -28.8641 -89.9863)">
				<stop  offset="0" style="stop-color:#B9B7BB"/>
				<stop  offset="2.317171e-04" style="stop-color:#BBB8BD"/>
				<stop  offset="0.0034" style="stop-color:#CDCCD0"/>
				<stop  offset="0.0071" style="stop-color:#DBDCDF"/>
				<stop  offset="0.0117" style="stop-color:#E5E7EA"/>
				<stop  offset="0.0182" style="stop-color:#EBEEF1"/>
				<stop  offset="0.0361" style="stop-color:#EDEFF3"/>
				<stop  offset="0.1205" style="stop-color:#FBFCFD"/>
				<stop  offset="0.1743" style="stop-color:#F5F6F8"/>
				<stop  offset="0.488" style="stop-color:#D5D7DA"/>
				<stop  offset="0.6506" style="stop-color:#D5D7DA"/>
				<stop  offset="0.8373" style="stop-color:#F4F5F7"/>
				<stop  offset="0.912" style="stop-color:#F3F3F5"/>
				<stop  offset="0.9388" style="stop-color:#EDEDF0"/>
				<stop  offset="0.958" style="stop-color:#E3E3E6"/>
				<stop  offset="0.9735" style="stop-color:#D4D4D8"/>
				<stop  offset="0.9867" style="stop-color:#C2C2C7"/>
				<stop  offset="0.9983" style="stop-color:#AAACB2"/>
				<stop  offset="1" style="stop-color:#A6A9AE"/>
			</linearGradient>
			<path fill="url(#SVGID_6_)" d="M179.03,49.102c-15.243,8.693-41.77-6.281-67.561-15.734C85.744,23.945,35.595,16.866,7.578,39.15
				c-2.541,2.379,0.311,7.141,0.311,7.141c-0.994-4.067,17.472-15.76,49.014-17.436c31.549-1.67,65.05,13.846,85.283,22.765
				c18.749,8.267,30.479,3.427,35.968,0.458c5.485-2.968,5.974-6.289,6.729-9.197l0,0C184.102,45.205,182.165,47.316,179.03,49.102z
				"/>
		</g>
		<defs>
			<filter id="Adobe_OpacityMaskFilter" filterUnits="userSpaceOnUse" x="6.576" y="40" width="1.75" height="6.652">
				<feFlood  style="flood-color:white;flood-opacity:1" result="back"/>
				<feBlend  in="SourceGraphic" in2="back" mode="normal"/>
			</filter>
		</defs>
		<mask maskUnits="userSpaceOnUse" x="6.576" y="40" width="1.75" height="6.652" id="SVGID_7_">
			<g filter="url(#Adobe_OpacityMaskFilter)">
				<defs>
					<filter id="Adobe_OpacityMaskFilter_1_" filterUnits="userSpaceOnUse" x="6.576" y="40" width="1.75" height="6.652">
						<feFlood  style="flood-color:white;flood-opacity:1" result="back"/>
						<feBlend  in="SourceGraphic" in2="back" mode="normal"/>
					</filter>
				</defs>
				<mask maskUnits="userSpaceOnUse" x="6.576" y="40" width="1.75" height="6.652" id="SVGID_7_">
					<g filter="url(#Adobe_OpacityMaskFilter_1_)">
					</g>
				</mask>
				
					<linearGradient id="SVGID_8_" gradientUnits="userSpaceOnUse" x1="29.9792" y1="134.5957" x2="28.3637" y2="135.7229" gradientTransform="matrix(0.9986 -0.053 0.053 0.9986 -28.8641 -89.9863)">
					<stop  offset="0" style="stop-color:#000000"/>
					<stop  offset="0.0849" style="stop-color:#090909"/>
					<stop  offset="0.2232" style="stop-color:#212121"/>
					<stop  offset="0.3979" style="stop-color:#494949"/>
					<stop  offset="0.602" style="stop-color:#808080"/>
					<stop  offset="0.828" style="stop-color:#C5C5C5"/>
					<stop  offset="1" style="stop-color:#FFFFFF"/>
				</linearGradient>
				<path mask="url(#SVGID_7_)" fill="url(#SVGID_8_)" d="M7.204,40c-1.759,2.492,0.739,6.652,0.739,6.652
					c-0.116-0.46,0.021-1.012,0.384-1.629C7.844,44.086,6.9,41.914,7.204,40z"/>
			</g>
		</mask>
		
			<linearGradient id="SVGID_9_" gradientUnits="userSpaceOnUse" x1="29.9792" y1="134.5957" x2="28.3637" y2="135.7229" gradientTransform="matrix(0.9986 -0.053 0.053 0.9986 -28.8641 -89.9863)">
			<stop  offset="0" style="stop-color:#A6A9AE"/>
			<stop  offset="1" style="stop-color:#ABA9AC"/>
		</linearGradient>
		<path fill="url(#SVGID_9_)" d="M7.204,40c-1.759,2.492,0.739,6.652,0.739,6.652c-0.116-0.46,0.021-1.012,0.384-1.629
			C7.844,44.086,6.9,41.914,7.204,40z"/>
		<g>
			<g>
				<defs>
					<path id="SVGID_1_" d="M142.91,53.086c-20.229-8.92-53.73-24.443-85.278-22.769C26.084,31.991,7.834,43.012,8.824,47.075
						c2.149,2.714,12.251,6.622,23.726,7.376c12.073,0.808,103.763,7.366,109.043,7.399c4.142,0.025,23.467-0.999,34.845-7.095
						C170.248,57.544,159.243,60.288,142.91,53.086z"/>
				</defs>
				<clipPath id="SVGID_10_">
					<use xlink:href="#SVGID_1_"  overflow="visible"/>
				</clipPath>
				<rect x="7.834" y="28.643" clip-path="url(#SVGID_10_)" fill="#656364" width="168.605" height="33.233"/>
				<path clip-path="url(#SVGID_10_)" fill="#656364" d="M177.438,41.802v8.769v4.859h5.006c-2.453,0.449-5.043,0.865-7.76,1.248
					c-21.732,3.065-51.561,3.994-84.333,2.06c-32.773-1.935-62.285-6.364-83.506-11.964c-1.326-0.35-2.62-0.704-3.88-1.062h3.869
					V27.643h170.605V41.802z"/>
				<path clip-path="url(#SVGID_10_)" fill="#6A6768" d="M177.438,41.733v8.684v4.813h4.126c-2.43,0.444-4.994,0.857-7.684,1.236
					c-21.521,3.034-51.06,3.953-83.514,2.038C57.911,56.59,28.685,52.202,7.67,46.656c-2.627-0.693-5.126-1.404-7.486-2.131h6.65
					V27.643h170.605V41.733z"/>
				<path clip-path="url(#SVGID_10_)" fill="#6E6B6C" d="M177.438,41.666v8.598v4.766h3.246c-2.406,0.439-4.946,0.848-7.609,1.224
					c-21.311,3.005-50.56,3.916-82.696,2.02S29.304,52.031,8.495,46.541c-2.601-0.686-5.075-1.391-7.413-2.11h5.751V27.643h170.605
					V41.666z"/>
				<path clip-path="url(#SVGID_10_)" fill="#737070" d="M177.438,41.598v8.513v4.72h2.365c-2.382,0.435-4.896,0.839-7.534,1.211
					c-21.099,2.976-50.059,3.877-81.876,1.999c-31.818-1.878-60.47-6.179-81.074-11.615c-2.575-0.679-5.025-1.376-7.339-2.089h4.854
					V27.643h170.605V41.598z"/>
				<path clip-path="url(#SVGID_10_)" fill="#777374" d="M177.438,41.53v8.427v4.672h1.484c-2.358,0.431-4.848,0.831-7.459,1.199
					c-20.888,2.945-49.558,3.838-81.057,1.979c-31.5-1.858-59.866-6.117-80.263-11.499c-2.55-0.673-4.975-1.363-7.267-2.068h3.957
					V27.643h170.605V41.53z"/>
				<path clip-path="url(#SVGID_10_)" fill="#7B7778" d="M177.438,41.462v8.343v4.624h0.605c-2.334,0.427-4.799,0.823-7.383,1.188
					c-20.678,2.916-49.058,3.8-80.24,1.959c-31.182-1.841-59.261-6.056-79.453-11.384c-2.524-0.666-4.925-1.35-7.193-2.048h3.059
					V27.643h170.605V41.462z"/>
				<path clip-path="url(#SVGID_10_)" fill="#7F7B7C" d="M177.438,41.394v8.257v3.223h6.261c-4.088,0.962-8.727,1.809-13.845,2.53
					c-20.466,2.886-48.557,3.761-79.42,1.939C59.57,55.522,31.777,51.35,11.792,46.076c-2.499-0.659-4.875-1.336-7.12-2.027h2.161
					V27.643h170.605V41.394z"/>
				<path clip-path="url(#SVGID_10_)" fill="#837F80" d="M177.438,41.326v8.171v3.189h5.313c-4.046,0.952-8.638,1.791-13.702,2.505
					c-20.255,2.856-48.056,3.723-78.601,1.92c-30.545-1.803-58.052-5.933-77.831-11.151c-2.473-0.652-4.824-1.322-7.046-2.006h1.263
					V27.643h164.075v-4.006c4.945,1.305,9.406,2.678,13.312,4.1h-6.783V41.326z"/>
				<path clip-path="url(#SVGID_10_)" fill="#868284" d="M177.438,41.258v8.088V52.5h4.364c-4.004,0.942-8.548,1.772-13.559,2.479
					c-20.044,2.827-47.556,3.684-77.783,1.899c-30.227-1.784-57.447-5.87-77.02-11.034c-4.894-1.291-9.309-2.649-13.174-4.057h6.566
					V27.643h163.251v-3.891c4.893,1.291,9.308,2.649,13.174,4.057h-5.82V41.258z"/>
				<path clip-path="url(#SVGID_10_)" fill="#8A8687" d="M177.438,41.189v8.002v3.121h3.417c-3.962,0.933-8.458,1.754-13.416,2.453
					c-19.834,2.797-47.056,3.645-76.964,1.88c-29.909-1.765-56.842-5.809-76.209-10.919c-4.842-1.277-9.211-2.621-13.035-4.014
					h5.603v-14.07h162.427v-3.773c4.842,1.277,9.211,2.621,13.035,4.014h-4.857V41.189z"/>
				<path clip-path="url(#SVGID_10_)" fill="#8D898B" d="M177.438,41.122v7.917v3.089h2.47c-3.919,0.923-8.368,1.735-13.273,2.427
					c-19.623,2.767-46.555,3.605-76.146,1.858c-29.59-1.746-56.237-5.747-75.398-10.803c-4.791-1.265-9.113-2.595-12.896-3.972h4.64
					V27.643h161.602v-3.657c4.791,1.265,9.113,2.595,12.896,3.972h-3.894V41.122z"/>
				<path clip-path="url(#SVGID_10_)" fill="#908D8E" d="M177.438,41.054v7.831v3.056h1.522c-3.878,0.913-8.278,1.717-13.131,2.401
					c-19.411,2.737-46.054,3.566-75.326,1.839C61.23,54.453,34.87,50.496,15.915,45.494c-4.739-1.25-9.015-2.565-12.758-3.928h3.677
					V27.643h160.777v-3.541c4.739,1.25,9.015,2.565,12.758,3.928h-2.931V41.054z"/>
				<path clip-path="url(#SVGID_10_)" fill="#939091" d="M177.438,40.985v7.747v3.021h0.574c-3.836,0.903-8.188,1.698-12.988,2.375
					c-19.201,2.708-45.554,3.528-74.508,1.819c-28.955-1.708-55.028-5.622-73.777-10.569c-4.688-1.236-8.917-2.538-12.619-3.886
					h2.714V27.643h159.953v-3.426c4.688,1.236,8.917,2.538,12.619,3.886h-1.968V40.985z"/>
				<path clip-path="url(#SVGID_10_)" fill="#969395" d="M177.438,40.918v7.661v1.571h4.922c-1.631,0.498-3.399,0.971-5.296,1.417
					c-3.793,0.893-8.099,1.679-12.846,2.349c-18.989,2.679-45.052,3.49-73.688,1.8c-28.636-1.69-54.424-5.561-72.967-10.454
					c-4.636-1.223-8.819-2.51-12.48-3.843h1.751V27.643h159.129v-3.309c4.636,1.223,8.818,2.51,12.48,3.843h-1.005V40.918z"/>
				<path clip-path="url(#SVGID_10_)" fill="#999698" d="M177.438,40.85v7.577v1.554h3.915c-1.613,0.493-3.362,0.961-5.237,1.402
					c-3.751,0.883-8.008,1.66-12.702,2.322c-18.778,2.648-44.553,3.449-72.87,1.778c-28.318-1.671-53.819-5.499-72.156-10.338
					c-4.584-1.21-8.721-2.482-12.341-3.8h0.787V27.643h158.305V24.45c4.584,1.21,8.721,2.482,12.341,3.8h-0.041V40.85z"/>
				<path clip-path="url(#SVGID_10_)" fill="#9C999B" d="M177.438,40.782v7.49v1.535h2.908c-1.595,0.487-3.324,0.95-5.179,1.387
					c-3.708,0.873-7.918,1.642-12.56,2.297c-18.566,2.618-44.051,3.412-72.051,1.76c-28-1.652-53.214-5.438-71.346-10.222
					c-4.533-1.196-8.623-2.455-12.203-3.758c-1.79-0.651-3.453-1.315-4.979-1.986h4.805V27.643h157.48v-3.076
					c4.533,1.196,8.623,2.455,12.203,3.758c1.79,0.651,3.452,1.314,4.98,1.986h-4.059V40.782z"/>
				<path clip-path="url(#SVGID_10_)" fill="#9F9C9E" d="M177.438,40.714v7.406h6.227c-5.215,2.12-12.684,3.865-21.861,5.159
					c-18.356,2.589-43.551,3.373-71.232,1.739c-27.682-1.634-52.609-5.376-70.534-10.105c-4.481-1.183-8.525-2.427-12.064-3.715
					c-1.77-0.644-3.413-1.299-4.922-1.964h3.784V27.643h156.655v-2.96c4.481,1.183,8.525,2.427,12.064,3.715
					c1.77,0.644,3.413,1.299,4.923,1.964h-3.038V40.714z"/>
				<path clip-path="url(#SVGID_10_)" fill="#A19EA0" d="M177.438,40.646v7.321h5.171c-5.155,2.096-12.538,3.82-21.61,5.1
					c-18.145,2.559-43.051,3.334-70.414,1.72c-27.363-1.614-52.004-5.313-69.724-9.989C12.002,42.459,4.873,39.877,0,37.189h6.834
					v-9.547h155.831v-2.844c8.859,2.338,15.988,4.92,20.861,7.607h-6.088V40.646z"/>
				<path clip-path="url(#SVGID_10_)" fill="#A4A1A3" d="M177.438,40.578v7.235h4.114c-5.095,2.071-12.393,3.776-21.359,5.041
					c-17.934,2.529-42.55,3.296-69.595,1.699c-27.045-1.597-51.4-5.253-68.913-9.874c-8.756-2.311-15.802-4.862-20.619-7.518h5.768
					v-9.52h155.007v-2.727c8.757,2.311,15.803,4.862,20.619,7.518h-5.022V40.578z"/>
				<path clip-path="url(#SVGID_10_)" fill="#A7A3A6" d="M177.438,40.51v7.15h3.059c-5.036,2.047-12.247,3.732-21.108,4.981
					c-17.724,2.499-42.05,3.257-68.776,1.68c-26.727-1.577-50.795-5.191-68.102-9.757c-8.654-2.283-15.617-4.806-20.376-7.431h4.7
					v-9.491h154.182v-2.611c8.654,2.283,15.617,4.806,20.377,7.431h-3.954V40.51z"/>
				<path clip-path="url(#SVGID_10_)" fill="#A9A6A8" d="M177.438,40.441v7.064h2.002c-4.976,2.023-12.101,3.688-20.856,4.923
					c-17.513,2.47-41.549,3.219-67.958,1.66c-26.409-1.559-50.19-5.129-67.291-9.642c-8.55-2.256-15.431-4.748-20.134-7.342h3.633
					v-9.463h153.357v-2.494c8.55,2.256,15.431,4.748,20.134,7.342h-2.887V40.441z"/>
				<path clip-path="url(#SVGID_10_)" fill="#ABA8AB" d="M177.438,40.374v6.98h0.945c-4.915,1.998-11.955,3.643-20.605,4.863
					c-17.302,2.44-41.048,3.18-67.139,1.64c-26.091-1.54-49.586-5.067-66.48-9.525c-8.447-2.229-15.245-4.69-19.892-7.253h2.566
					v-9.436h152.533v-2.378c8.447,2.229,15.244,4.69,19.892,7.253h-1.82V40.374z"/>
				<path clip-path="url(#SVGID_10_)" fill="#ADAAAD" d="M177.438,40.306v3.682h5.536c-1.315,1.151-3.219,2.226-5.646,3.213
					c-4.855,1.974-11.81,3.599-20.355,4.804c-17.09,2.41-40.547,3.141-66.319,1.62c-25.772-1.52-48.981-5.005-65.67-9.409
					c-8.344-2.201-15.059-4.633-19.648-7.164h1.499v-9.408h151.709v-2.262c8.345,2.201,15.059,4.633,19.648,7.164h-0.753V40.306z"/>
				<path clip-path="url(#SVGID_10_)" fill="#AFACAF" d="M183.942,40.238c-0.607,10.269-42.366,16.158-93.275,13.153
					C65.213,51.89,42.291,48.449,25.808,44.1c-8.242-2.175-14.873-4.576-19.407-7.076h0.433v-9.381h150.885v-2.146
					C174.201,29.846,184.244,35.104,183.942,40.238z"/>
				<path clip-path="url(#SVGID_10_)" fill="#B1AFB1" d="M182.789,40.17c-0.597,10.141-41.836,15.956-92.108,12.989
					C40.408,50.192,0.139,39.566,0.737,29.426c0.149-2.535,2.839-4.8,7.575-6.725v4.941h148.582v-2.029
					C173.171,29.908,183.089,35.1,182.789,40.17z"/>
				<path clip-path="url(#SVGID_10_)" fill="#B3B0B3" d="M181.638,40.102c-0.59,10.013-41.307,15.755-90.943,12.825
					C41.059,49.998,1.299,39.506,1.889,29.494c0.147-2.503,2.803-4.739,7.479-6.641v4.789h146.701v-1.914
					C172.14,29.97,181.933,35.096,181.638,40.102z"/>
				<path clip-path="url(#SVGID_10_)" fill="#B5B2B5" d="M180.485,40.034c-0.583,9.884-40.777,15.552-89.777,12.66
					c-49-2.892-88.249-13.248-87.667-23.133c0.146-2.472,2.767-4.679,7.383-6.555v4.636h144.821v-1.797
					C171.109,30.031,180.776,35.092,180.485,40.034z"/>
				<path clip-path="url(#SVGID_10_)" fill="#B7B4B7" d="M179.333,39.966c-0.575,9.756-40.248,15.351-88.611,12.496
					S3.619,39.386,4.193,29.63c0.144-2.438,2.731-4.618,7.287-6.47v4.482h142.94v-1.681
					C170.079,30.094,179.62,35.088,179.333,39.966z"/>
				<path clip-path="url(#SVGID_10_)" fill="#B8B6B9" d="M178.181,39.897c-0.567,9.628-39.719,15.148-87.445,12.332
					C43.009,49.413,4.778,39.325,5.346,29.698c0.142-2.407,2.695-4.558,7.19-6.385v4.329h141.061v-1.564
					C169.049,30.155,178.464,35.084,178.181,39.897z"/>
				<path clip-path="url(#SVGID_10_)" fill="#BAB7BB" d="M177.028,39.83c-0.56,9.499-39.188,14.946-86.279,12.167
					C43.659,49.218,5.938,39.265,6.498,29.766c0.14-2.375,2.659-4.496,7.095-6.299v4.176h139.179v-1.448
					C168.018,30.217,177.309,35.08,177.028,39.83z"/>
				<path clip-path="url(#SVGID_10_)" fill="#BCB9BC" d="M175.876,39.762c-0.553,9.371-38.658,14.744-85.113,12.003
					S7.098,39.204,7.65,29.834c0.138-2.343,2.623-4.436,6.999-6.214v4.022h137.298v-1.332
					C166.988,30.279,176.152,35.076,175.876,39.762z"/>
				<path clip-path="url(#SVGID_10_)" fill="#BDBABE" d="M174.724,39.693c-0.545,9.242-38.129,14.543-83.947,11.839
					C44.959,48.828,8.258,39.145,8.802,29.902c0.136-2.31,2.587-4.375,6.904-6.129v3.869h135.417v-1.216
					C165.957,30.341,174.996,35.072,174.724,39.693z"/>
				<path clip-path="url(#SVGID_10_)" fill="#BEBCBF" d="M173.572,39.626c-0.537,9.113-37.6,14.34-82.782,11.674
					C45.609,48.634,9.417,39.084,9.955,29.97c0.134-2.278,2.551-4.313,6.807-6.044v3.717h133.536v-1.1
					C164.927,30.402,173.84,35.068,173.572,39.626z"/>
				<path clip-path="url(#SVGID_10_)" fill="#C0BDC0" d="M172.419,39.558c-0.529,8.985-37.07,14.139-81.615,11.51
					c-44.545-2.629-80.227-12.044-79.697-21.029c0.132-2.247,2.516-4.254,6.712-5.96v3.564h131.655v-0.983
					C163.896,30.465,172.685,35.064,172.419,39.558z"/>
				<path clip-path="url(#SVGID_10_)" fill="#C1BEC2" d="M171.268,39.49c-0.522,8.856-36.541,13.937-80.45,11.345
					c-43.909-2.591-79.081-11.872-78.559-20.729c0.13-2.214,2.479-4.191,6.616-5.873v3.41h129.774v-0.867
					C162.866,30.527,171.528,35.062,171.268,39.49z"/>
				<path clip-path="url(#SVGID_10_)" fill="#C2C0C3" d="M170.115,39.422c-0.515,8.729-36.011,13.734-79.284,11.181
					c-43.272-2.554-77.935-11.7-77.42-20.429c0.129-2.182,2.444-4.131,6.52-5.788v3.257h127.894v-0.75
					C161.835,30.589,170.372,35.058,170.115,39.422z"/>
				<path clip-path="url(#SVGID_10_)" fill="#C3C1C4" d="M168.963,39.354c-0.507,8.601-35.481,13.533-78.118,11.017
					c-42.636-2.516-76.789-11.528-76.282-20.128c0.127-2.15,2.408-4.071,6.424-5.703v3.104h126.013v-0.635
					C160.805,30.65,169.216,35.054,168.963,39.354z"/>
				<path clip-path="url(#SVGID_10_)" fill="#C4C2C5" d="M167.811,39.286c-0.5,8.472-34.951,13.33-76.952,10.852
					c-42-2.479-75.643-11.355-75.143-19.828c0.25-4.235,8.988-7.568,22.913-9.532v6.865h107.548v-0.518
					C159.774,30.713,168.061,35.05,167.811,39.286z"/>
				<path clip-path="url(#SVGID_10_)" fill="#C5C3C6" d="M166.658,39.218c-0.491,8.344-34.423,13.129-75.786,10.688
					c-41.363-2.441-74.497-11.184-74.004-19.527c0.246-4.172,8.852-7.454,22.566-9.388v6.652h105.917V27.24
					C158.744,30.774,166.904,35.046,166.658,39.218z"/>
				<path clip-path="url(#SVGID_10_)" fill="#C6C4C7" d="M165.506,39.149c-0.483,8.216-33.893,12.927-74.62,10.523
					c-40.727-2.403-73.35-11.012-72.866-19.226c0.242-4.108,8.715-7.34,22.219-9.244v6.44h104.288v-0.285
					C157.714,30.836,165.748,35.042,165.506,39.149z"/>
				<path clip-path="url(#SVGID_10_)" fill="#C6C5C8" d="M164.354,39.082C163.877,47.169,130.99,51.807,90.9,49.44
					c-40.091-2.366-72.204-10.84-71.728-18.927c0.239-4.043,8.58-7.225,21.872-9.1v6.229h102.659v-0.17
					C156.683,30.898,164.593,35.039,164.354,39.082z"/>
				<path clip-path="url(#SVGID_10_)" fill="#C7C5C9" d="M163.202,39.014c-0.47,7.959-32.834,12.522-72.289,10.194
					C51.459,46.88,19.855,38.54,20.325,30.582c0.235-3.979,8.443-7.109,21.524-8.954v6.015h101.03V27.59
					C155.652,30.961,163.436,35.035,163.202,39.014z"/>
				<path clip-path="url(#SVGID_10_)" fill="#C8C6CA" d="M162.049,38.946c-0.461,7.83-32.304,12.32-71.122,10.029
					c-38.818-2.291-69.912-10.495-69.45-18.326c0.231-3.915,8.307-6.995,21.177-8.81v5.803h77.237V23.35
					c8.367,1.213,15.878,2.698,22.162,4.356C154.622,31.022,162.28,35.031,162.049,38.946z"/>
				<path clip-path="url(#SVGID_10_)" fill="#C9C7CA" d="M160.897,38.878c-0.454,7.702-31.774,12.118-69.957,9.865
					C52.759,46.49,22.175,38.42,22.629,30.718c0.227-3.85,8.17-6.88,20.83-8.665v5.59h49.126v-6.79
					C130.768,23.105,161.352,31.176,160.897,38.878z"/>
				<path clip-path="url(#SVGID_10_)" fill="#C9C7CB" d="M159.745,38.81c-0.447,7.573-31.245,11.917-68.791,9.701
					c-37.545-2.216-67.62-10.151-67.173-17.725c0.224-3.786,8.035-6.766,20.483-8.521v5.378h48.307v-6.558
					C130.117,23.301,160.191,31.236,159.745,38.81z"/>
				<path clip-path="url(#SVGID_10_)" fill="#CAC8CC" d="M158.593,38.742c-0.44,7.444-30.716,11.715-67.624,9.536
					c-36.909-2.178-66.474-9.979-66.035-17.425c0.22-3.723,7.898-6.651,20.136-8.377v5.166h47.488v-6.325
					C129.467,23.495,159.031,31.297,158.593,38.742z"/>
				<path clip-path="url(#SVGID_10_)" fill="#CAC9CC" d="M157.44,38.674c-0.431,7.316-30.186,11.513-66.458,9.372
					c-36.273-2.141-65.328-9.808-64.896-17.124c0.216-3.658,7.762-6.536,19.789-8.232v4.953h46.669V21.55
					C128.817,23.69,157.872,31.357,157.44,38.674z"/>
				<path clip-path="url(#SVGID_10_)" fill="#CBC9CD" d="M156.288,38.605c-0.424,7.188-29.656,11.312-65.292,9.208
					C55.36,45.711,26.814,38.179,27.238,30.99c0.212-3.594,7.626-6.422,19.441-8.088v4.74H92.53v-5.86
					C128.167,23.885,156.712,31.417,156.288,38.605z"/>
				<path clip-path="url(#SVGID_10_)" fill="#CBCACD" d="M155.136,38.538c-0.416,7.059-29.126,11.108-64.126,9.043
					c-35-2.065-63.036-9.463-62.62-16.523c0.208-3.53,7.49-6.308,19.095-7.943v4.528h45.032v-5.628
					C127.517,24.08,155.552,31.478,155.136,38.538z"/>
				<path clip-path="url(#SVGID_10_)" fill="#CCCACE" d="M153.984,38.47c-0.409,6.932-28.598,10.907-62.961,8.879
					c-34.364-2.028-61.89-9.291-61.481-16.223c0.205-3.466,7.354-6.192,18.748-7.8v4.316h44.213v-5.396
					C126.867,24.275,154.393,31.538,153.984,38.47z"/>
				<path clip-path="url(#SVGID_10_)" fill="#CCCBCE" d="M152.831,38.401c-0.4,6.804-28.066,10.705-61.794,8.715
					c-33.727-1.99-60.743-9.119-60.342-15.922c0.201-3.401,7.217-6.078,18.4-7.655v4.104h43.395V22.48
					C126.216,24.47,153.232,31.599,152.831,38.401z"/>
				
					<ellipse transform="matrix(0.9983 0.0589 -0.0589 0.9983 2.2096 -5.3459)" clip-path="url(#SVGID_10_)" fill="#CCCBCF" cx="91.763" cy="34.798" rx="60.02" ry="12.107"/>
				
					<ellipse transform="matrix(0.9983 0.0589 -0.0589 0.9983 2.2093 -5.3454)" clip-path="url(#SVGID_10_)" fill="#CDCBCF" cx="91.763" cy="34.798" rx="58.866" ry="11.874"/>
				
					<ellipse transform="matrix(0.9983 0.0589 -0.0589 0.9983 2.2097 -5.3462)" clip-path="url(#SVGID_10_)" fill="#CDCCCF" cx="91.763" cy="34.798" rx="57.712" ry="11.641"/>
				
					<ellipse transform="matrix(0.9983 0.0589 -0.0589 0.9983 2.2095 -5.3457)" clip-path="url(#SVGID_10_)" fill="#CDCCD0" cx="91.763" cy="34.798" rx="56.558" ry="11.408"/>
				
					<ellipse transform="matrix(0.9983 0.0589 -0.0589 0.9983 2.2092 -5.3452)" clip-path="url(#SVGID_10_)" fill="#CECCD0" cx="91.763" cy="34.798" rx="55.403" ry="11.176"/>
				
					<ellipse transform="matrix(0.9983 0.0589 -0.0589 0.9983 2.2097 -5.3461)" clip-path="url(#SVGID_10_)" fill="#CECDD0" cx="91.763" cy="34.798" rx="54.249" ry="10.943"/>
				
					<ellipse transform="matrix(0.9983 0.0589 -0.0589 0.9983 2.2094 -5.3455)" clip-path="url(#SVGID_10_)" fill="#CECDD1" cx="91.763" cy="34.798" rx="53.095" ry="10.71"/>
				
					<ellipse transform="matrix(0.9983 0.0589 -0.0589 0.9983 2.2091 -5.3449)" clip-path="url(#SVGID_10_)" fill="#CECDD1" cx="91.763" cy="34.798" rx="51.941" ry="10.477"/>
				
					<ellipse transform="matrix(0.9983 0.0589 -0.0589 0.9983 2.2096 -5.346)" clip-path="url(#SVGID_10_)" fill="#CFCDD1" cx="91.763" cy="34.798" rx="50.786" ry="10.244"/>
				
					<ellipse transform="matrix(0.9983 0.0589 -0.0589 0.9983 2.2093 -5.3453)" clip-path="url(#SVGID_10_)" fill="#CFCDD1" cx="91.763" cy="34.798" rx="49.632" ry="10.012"/>
				
					<ellipse transform="matrix(0.9983 0.0589 -0.0589 0.9983 2.2098 -5.3465)" clip-path="url(#SVGID_10_)" fill="#CFCED1" cx="91.763" cy="34.798" rx="48.478" ry="9.779"/>
				
					<ellipse transform="matrix(0.9983 0.0589 -0.0589 0.9983 2.2095 -5.3458)" clip-path="url(#SVGID_10_)" fill="#CFCED2" cx="91.763" cy="34.798" rx="47.324" ry="9.546"/>
				
					<ellipse transform="matrix(0.9983 0.0589 -0.0589 0.9983 2.2092 -5.345)" clip-path="url(#SVGID_10_)" fill="#CFCED2" cx="91.763" cy="34.798" rx="46.17" ry="9.313"/>
				
					<ellipse transform="matrix(0.9983 0.0589 -0.0589 0.9983 2.2098 -5.3463)" clip-path="url(#SVGID_10_)" fill="#CFCED2" cx="91.763" cy="34.798" rx="45.015" ry="9.08"/>
				
					<ellipse transform="matrix(0.9983 0.0589 -0.0589 0.9983 2.2095 -5.3457)" clip-path="url(#SVGID_10_)" fill="#CFCED2" cx="91.763" cy="34.798" rx="43.861" ry="8.847"/>
				
					<ellipse transform="matrix(0.9983 0.0589 -0.0589 0.9983 2.209 -5.3448)" clip-path="url(#SVGID_10_)" fill="#CFCED2" cx="91.763" cy="34.798" rx="42.707" ry="8.615"/>
				
					<ellipse transform="matrix(0.9983 0.0589 -0.0589 0.9983 2.2097 -5.3462)" clip-path="url(#SVGID_10_)" fill="#D0CED2" cx="91.763" cy="34.798" rx="41.552" ry="8.382"/>
				
					<ellipse transform="matrix(0.9983 0.0589 -0.0589 0.9983 2.2094 -5.3454)" clip-path="url(#SVGID_10_)" fill="#D0CED2" cx="91.763" cy="34.798" rx="40.398" ry="8.149"/>
				
					<ellipse transform="matrix(0.9983 0.0589 -0.0589 0.9983 2.2089 -5.3445)" clip-path="url(#SVGID_10_)" fill="#D0CED2" cx="91.763" cy="34.798" rx="39.244" ry="7.916"/>
				
					<ellipse transform="matrix(0.9983 0.0589 -0.0589 0.9983 2.2096 -5.346)" clip-path="url(#SVGID_10_)" fill="#D0CFD2" cx="91.763" cy="34.798" rx="38.089" ry="7.683"/>
				
					<ellipse transform="matrix(0.9983 0.0589 -0.0589 0.9983 2.2092 -5.3451)" clip-path="url(#SVGID_10_)" fill="#D0CFD2" cx="91.763" cy="34.798" rx="36.936" ry="7.45"/>
				
					<ellipse transform="matrix(0.9983 0.0589 -0.0589 0.9983 2.2099 -5.3466)" clip-path="url(#SVGID_10_)" fill="#D0CFD2" cx="91.763" cy="34.798" rx="35.781" ry="7.218"/>
				
					<ellipse transform="matrix(0.9983 0.0589 -0.0589 0.9983 2.2095 -5.3458)" clip-path="url(#SVGID_10_)" fill="#D0CFD3" cx="91.763" cy="34.798" rx="34.627" ry="6.985"/>
				
					<ellipse transform="matrix(0.9983 0.0589 -0.0589 0.9983 2.2091 -5.3449)" clip-path="url(#SVGID_10_)" fill="#D0CFD3" cx="91.763" cy="34.798" rx="33.473" ry="6.752"/>
				
					<ellipse transform="matrix(0.9983 0.0589 -0.0589 0.9983 2.2098 -5.3464)" clip-path="url(#SVGID_10_)" fill="#D0CFD3" cx="91.763" cy="34.798" rx="32.319" ry="6.519"/>
				
					<ellipse transform="matrix(0.9983 0.0589 -0.0589 0.9983 2.2094 -5.3455)" clip-path="url(#SVGID_10_)" fill="#D0CFD3" cx="91.763" cy="34.798" rx="31.164" ry="6.286"/>
				
					<ellipse transform="matrix(0.9983 0.0589 -0.0589 0.9983 2.2089 -5.3444)" clip-path="url(#SVGID_10_)" fill="#D0CFD3" cx="91.763" cy="34.798" rx="30.01" ry="6.054"/>
				
					<ellipse transform="matrix(0.9983 0.0589 -0.0589 0.9983 2.2097 -5.3463)" clip-path="url(#SVGID_10_)" fill="#D0CFD3" cx="91.763" cy="34.798" rx="28.856" ry="5.821"/>
				
					<ellipse transform="matrix(0.9983 0.0589 -0.0589 0.9983 2.2092 -5.3451)" clip-path="url(#SVGID_10_)" fill="#D0CFD3" cx="91.763" cy="34.798" rx="27.702" ry="5.588"/>
				
					<ellipse transform="matrix(0.9983 0.0589 -0.0589 0.9983 2.2101 -5.3471)" clip-path="url(#SVGID_10_)" fill="#D0CFD3" cx="91.763" cy="34.798" rx="26.548" ry="5.355"/>
				
					<ellipse transform="matrix(0.9983 0.0589 -0.0589 0.9983 2.2096 -5.346)" clip-path="url(#SVGID_10_)" fill="#D0CFD3" cx="91.763" cy="34.798" rx="25.393" ry="5.122"/>
				
					<ellipse transform="matrix(0.9983 0.0589 -0.0589 0.9983 2.209 -5.3447)" clip-path="url(#SVGID_10_)" fill="#D0CFD3" cx="91.763" cy="34.798" rx="24.239" ry="4.889"/>
				
					<ellipse transform="matrix(0.9983 0.0589 -0.0589 0.9983 2.2101 -5.347)" clip-path="url(#SVGID_10_)" fill="#D0CFD3" cx="91.763" cy="34.798" rx="23.085" ry="4.657"/>
				
					<ellipse transform="matrix(0.9983 0.0589 -0.0589 0.9983 2.2094 -5.3456)" clip-path="url(#SVGID_10_)" fill="#D0CFD3" cx="91.763" cy="34.798" rx="21.931" ry="4.424"/>
				
					<ellipse transform="matrix(0.9983 0.0589 -0.0589 0.9983 2.2088 -5.3442)" clip-path="url(#SVGID_10_)" fill="#D0CFD3" cx="91.763" cy="34.798" rx="20.776" ry="4.191"/>
				
					<ellipse transform="matrix(0.9983 0.0589 -0.0589 0.9983 2.2099 -5.3467)" clip-path="url(#SVGID_10_)" fill="#D0CFD3" cx="91.763" cy="34.798" rx="19.622" ry="3.958"/>
				
					<ellipse transform="matrix(0.9983 0.0589 -0.0589 0.9983 2.2092 -5.3452)" clip-path="url(#SVGID_10_)" fill="#D0CFD3" cx="91.763" cy="34.798" rx="18.468" ry="3.725"/>
				
					<ellipse transform="matrix(0.9983 0.0589 -0.0589 0.9983 2.2084 -5.3432)" clip-path="url(#SVGID_10_)" fill="#D0CFD3" cx="91.763" cy="34.798" rx="17.314" ry="3.492"/>
				
					<ellipse transform="matrix(0.9983 0.0589 -0.0589 0.9983 2.2098 -5.3464)" clip-path="url(#SVGID_10_)" fill="#D0CFD3" cx="91.763" cy="34.798" rx="16.159" ry="3.26"/>
				
					<ellipse transform="matrix(0.9983 0.0589 -0.0589 0.9983 2.2089 -5.3445)" clip-path="url(#SVGID_10_)" fill="#D0CFD3" cx="91.763" cy="34.798" rx="15.005" ry="3.027"/>
				
					<ellipse transform="matrix(0.9983 0.0589 -0.0589 0.9983 2.2106 -5.3483)" clip-path="url(#SVGID_10_)" fill="#D0CFD3" cx="91.763" cy="34.798" rx="13.851" ry="2.794"/>
				
					<ellipse transform="matrix(0.9983 0.0589 -0.0589 0.9983 2.2096 -5.3461)" clip-path="url(#SVGID_10_)" fill="#D0CFD3" cx="91.763" cy="34.798" rx="12.696" ry="2.561"/>
				
					<ellipse transform="matrix(0.9983 0.0589 -0.0589 0.9983 2.2084 -5.3433)" clip-path="url(#SVGID_10_)" fill="#D0CFD3" cx="91.763" cy="34.798" rx="11.542" ry="2.328"/>
				
					<ellipse transform="matrix(0.9983 0.0589 -0.0589 0.9983 2.2106 -5.3482)" clip-path="url(#SVGID_10_)" fill="#D0CFD3" cx="91.763" cy="34.798" rx="10.388" ry="2.095"/>
				
					<ellipse transform="matrix(0.9983 0.0589 -0.0589 0.9983 2.2093 -5.3452)" clip-path="url(#SVGID_10_)" fill="#D0CFD3" cx="91.763" cy="34.798" rx="9.234" ry="1.863"/>
				
					<ellipse transform="matrix(0.9983 0.0589 -0.0589 0.9983 2.2075 -5.3413)" clip-path="url(#SVGID_10_)" fill="#D0CFD3" cx="91.763" cy="34.798" rx="8.079" ry="1.63"/>
				
					<ellipse transform="matrix(0.9983 0.0589 -0.0589 0.9983 2.2105 -5.348)" clip-path="url(#SVGID_10_)" fill="#D0CFD3" cx="91.763" cy="34.798" rx="6.926" ry="1.397"/>
				
					<ellipse transform="matrix(0.9983 0.0589 -0.0589 0.9983 2.2084 -5.3433)" clip-path="url(#SVGID_10_)" fill="#D0CFD3" cx="91.763" cy="34.798" rx="5.771" ry="1.164"/>
				
					<ellipse transform="matrix(0.9983 0.059 -0.059 0.9983 2.2134 -5.3544)" clip-path="url(#SVGID_10_)" fill="#D0CFD3" cx="91.763" cy="34.798" rx="4.617" ry="0.931"/>
				
					<ellipse transform="matrix(0.9983 0.0589 -0.0589 0.9983 2.2107 -5.3484)" clip-path="url(#SVGID_10_)" fill="#D0CFD3" cx="91.763" cy="34.798" rx="3.463" ry="0.699"/>
				
					<ellipse transform="matrix(0.9983 0.0588 -0.0588 0.9983 2.2049 -5.3354)" clip-path="url(#SVGID_10_)" fill="#D0CFD3" cx="91.763" cy="34.798" rx="2.309" ry="0.466"/>
				
					<ellipse transform="matrix(0.9982 0.0592 -0.0592 0.9982 2.2214 -5.3722)" clip-path="url(#SVGID_10_)" fill="#D0CFD3" cx="91.763" cy="34.798" rx="1.154" ry="0.233"/>
			</g>
		</g>
		
			<radialGradient id="SVGID_11_" cx="117.6024" cy="65.1115" r="63.542" gradientTransform="matrix(0.9986 -0.053 0.0736 1.385 -26.4598 -58.495)" gradientUnits="userSpaceOnUse">
			<stop  offset="0" style="stop-color:#D0CFD3"/>
			<stop  offset="0.4016" style="stop-color:#CECDD0"/>
			<stop  offset="0.5463" style="stop-color:#C6C4C8"/>
			<stop  offset="0.6494" style="stop-color:#B9B6B9"/>
			<stop  offset="0.7328" style="stop-color:#A6A3A5"/>
			<stop  offset="0.8041" style="stop-color:#8F8B8D"/>
			<stop  offset="0.8662" style="stop-color:#757273"/>
			<stop  offset="0.8976" style="stop-color:#656364"/>
		</radialGradient>
		<path fill="url(#SVGID_11_)" d="M144.132,12.334C170.663,21.047,184.9,31.8,185.42,40.417
			c-0.189-8.663-14.454-19.575-41.306-28.391C106.812-0.206,48.625,3.195,7.651,39.361c0.943-0.756,1.917-1.473,2.906-2.164
			C51.333,3.359,107.694,0.393,144.132,12.334z"/>
	</g>
	<g>
		<g>
			<path fill="#E3E3E3" d="M145.233,24.903c-0.08,0.065-0.166,0.132-0.246,0.198c-0.5,0.966-0.586,1.927,0.727,2.868
				C147.101,27.132,146.675,25.887,145.233,24.903z"/>
			<path fill="#E3E3E3" d="M150.587,26.034c-1.146-0.142-2.182,0.035-3.086,0.854c-0.486,0.434-0.539,1.152-1.005,1.518
				c-0.526,0.406-1.44,0.424-1.948,0.797c-1.344,0.971-0.934,2.564,0.252,3.652c0.389,0.257,0.765,0.51,1.152,0.765
				c2.217,1.017,4.403,1.599,6.491,1.171c0.171-0.142,0.335-0.265,0.505-0.4c0.098-0.938,1.445-1.811,2.636-2.068
				c0.13-0.098,0.254-0.199,0.376-0.296c0.51-1.106-0.224-2.203-0.834-3.304c-0.05-0.033-0.091-0.062-0.131-0.101
				C153.159,29.568,149.772,27.541,150.587,26.034z"/>
		</g>
	</g>
</g>
</svg>